<?xml version="1.0" encoding="UTF-8" standalone="no"?>
<!DOCTYPE svg PUBLIC "-//W3C//DTD SVG 1.1//EN" "http://www.w3.org/Graphics/SVG/1.1/DTD/svg11.dtd">
<svg width="100%" height="100%" viewBox="0 0 1000 350" version="1.1" style="fill-rule:evenodd;clip-rule:evenodd;stroke-linejoin:round;stroke-miterlimit:2;">
    <g transform="matrix(0.488479,0,0,0.488479,-2.60408,-334.814)">
        <g transform="matrix(0.557998,0.557998,-0.557998,0.557998,-25.366,160.167)">
            <path d="M836.094,681.231C810.919,683.777 788.413,665.405 785.867,640.23C783.321,615.055 801.693,592.549 826.868,590.003C857.062,592.202 875.238,595.356 894.605,595.459C913.372,595.559 932.017,592.443 961.337,590.642C981.136,589.901 997.811,605.374 998.551,625.172C999.292,644.971 983.819,661.646 964.021,662.386C935.628,662.767 917.318,661.328 899.365,663.934C880.866,666.62 864.222,673.317 836.094,681.231Z" style="fill:rgb(243,112,98);"/>
        </g>
        <g transform="matrix(0.557998,0.557998,-0.557998,0.557998,-25.366,160.167)">
            <path d="M1066.98,663.187C1046.14,663.967 1028.59,647.683 1027.81,626.846C1027.03,606.01 1043.32,588.46 1064.15,587.681C1091.29,588.215 1114.72,589.355 1136.36,589.654C1162.82,590.019 1186.4,590.885 1210.11,590.935C1224.96,590.966 1239.56,590.614 1255.19,590.029C1286.32,588.862 1318.35,587.425 1360.65,587.63C1392.08,593.93 1412.48,624.563 1406.18,655.994C1399.88,687.424 1369.25,707.827 1337.82,701.527C1307.33,688.822 1283.58,678.04 1259.5,670.748C1240.88,665.112 1223.88,660.474 1206.16,658.299C1184.2,655.605 1162,656.003 1137.33,657.06C1116.2,657.965 1093.4,660.685 1066.98,663.187Z" style="fill:rgb(243,112,98);"/>
        </g>
        <g transform="matrix(0.643356,0.643356,-0.643356,0.643356,28.5626,-80.5571)">
            <path d="M818.051,677.232C795.083,669.82 782.454,645.155 789.866,622.187C797.278,599.22 821.943,586.59 844.911,594.002C898.238,617.086 935.336,634.721 974.35,643.277C987.252,646.107 1000.3,647.677 1013.93,648.408C1041.67,649.896 1071.79,647.272 1109.21,642.465C1126.1,640.622 1141.31,652.838 1143.15,669.728C1145,686.618 1132.78,701.828 1115.89,703.671C1067.61,708.161 1030.52,707.431 995.662,705.109C971.247,703.482 948.035,700.685 922.702,696.687C892.281,691.885 859.451,685.884 818.051,677.232Z" style="fill:rgb(243,112,98);"/>
        </g>
        <g transform="matrix(0.643356,0.643356,-0.643356,0.643356,28.5626,-80.5571)">
            <path d="M1200.5,694.802C1185.02,696.492 1171.07,685.294 1169.38,669.811C1167.69,654.328 1178.89,640.387 1194.38,638.697C1223.32,635.128 1248.13,632.778 1272.44,626.313C1295.87,620.082 1317.86,609.69 1344.67,597.231C1364.94,590.491 1386.88,601.48 1393.62,621.756C1400.36,642.032 1389.37,663.966 1369.09,670.706L1200.5,694.802Z" style="fill:rgb(243,112,98);"/>
        </g>
        <g transform="matrix(0.571586,0.571586,-0.571586,0.571586,147.254,-42.1891)">
            <path d="M800.546,683.135C774.32,666.062 766.89,630.908 783.963,604.683C801.036,578.457 836.19,571.026 862.416,588.099C898.3,617.359 933.023,642.346 970.483,658.88C1011.23,676.866 1052.74,688.001 1094.7,688.843C1111.79,689.186 1128.89,687.305 1145.82,684.08C1170.62,679.357 1194.76,670.703 1218.78,659.628C1255.74,642.587 1289.84,617.282 1324.96,587.106C1350.83,569.489 1386.13,576.186 1403.74,602.05C1421.36,627.915 1414.66,663.215 1388.8,680.832C1329.62,712.431 1272.88,732.936 1216.08,743.785C1191.54,748.473 1167.49,751.856 1143.32,753.6C1127.03,754.776 1110.83,755.396 1094.59,755.674C1054.33,756.365 1014.25,752.487 973.132,744.355C916.572,733.167 859.702,713.461 800.546,683.135Z" style="fill:rgb(243,112,98);"/>
        </g>
        <g transform="matrix(0.320358,0.320358,-0.320358,0.320358,324.086,330.757)">
            <path d="M1255.49,608.047C1264.1,594.974 1272.68,580.948 1281.77,566.194C1319.18,524.742 1383.2,521.456 1424.65,558.862C1466.11,596.268 1469.39,660.291 1431.99,701.743C1378.53,742.744 1331.03,773.725 1281.34,793.93C1255.73,804.346 1231.95,813.68 1207.39,819.934C1169.18,829.665 1132.35,833.952 1094.76,834.013C1046.6,834.091 998.963,825.484 947.456,808.503C887.165,788.626 826.861,755.434 759.236,706.435C720.151,666.562 720.791,602.458 760.664,563.373C800.537,524.287 864.64,524.927 903.726,564.8C932.157,606.244 956.138,642.289 987.746,666.829C1022.83,694.071 1058.57,713.193 1096.2,714.78C1111.24,715.414 1126.26,712.458 1140.88,707.847C1161.42,697.285 1158.75,674.154 1145.4,658.469C1131.94,642.67 1115.21,637.662 1086.95,633.701C1037.01,629.998 997.591,588.256 997.591,537.379C997.591,484.07 1040.87,440.79 1094.18,440.79C1147.49,440.79 1190.77,484.07 1190.77,537.379C1190.77,539.03 1190.73,540.671 1190.65,542.301C1190.66,568.715 1194.84,591.713 1206.76,605.449C1217.42,617.739 1237.37,626.612 1255.49,608.047Z" style="fill:rgb(243,112,98);"/>
        </g>
        <g transform="matrix(0.24281,0.24281,-0.24281,0.24281,49.1272,775.418)">
            <path d="M884.098,726.54C833.917,755.58 769.599,738.416 740.559,688.234C711.518,638.053 728.682,573.735 778.864,544.695C841.563,515.95 902.129,496.25 962.961,485.631C1006.92,477.958 1050.05,474.33 1093.51,474.122C1126.26,473.965 1158.86,475.656 1192.06,479.006C1264.03,486.268 1335.96,506.127 1411.81,540.101C1463.62,570.417 1481.06,637.089 1450.75,688.896C1420.43,740.703 1353.76,758.151 1301.95,727.836C1269.08,703.159 1238.19,680.732 1203.97,667.105C1167.95,652.764 1131.58,641.943 1094.62,642.422C1021.64,643.367 953.182,679.282 884.098,726.54Z" style="fill:rgb(243,112,98);"/>
        </g>
    </g>
    <g transform="matrix(0.212634,0,0,0.212634,216.864,-75.2128)">
        <path d="M812.486,503.324C617.667,503.324 502.458,625.372 502.458,805.648C502.458,975.671 615.96,1092.59 804.796,1092.59C876.573,1092.59 954.258,1077.24 1007.16,1055.05L1007.16,822.735L899.645,822.735L899.645,991.05C877.428,997.885 847.521,1002.16 820.177,1002.16C688.585,1002.16 621.934,934.66 621.934,806.502C621.934,666.382 699.693,598.883 821.886,598.883C878.282,598.883 927.805,610.847 977.297,631.352L994.364,538.305C938.898,512.709 879.991,503.324 812.486,503.324Z" style="fill:rgb(52,49,47);fill-rule:nonzero;"/>
        <path d="M1500.64,874.407C1500.64,756.953 1424.51,658.96 1291.44,658.96C1157.75,658.96 1082.24,756.953 1082.24,874.407C1082.24,991.861 1157.75,1089.85 1291.44,1089.85C1424.51,1089.85 1500.64,991.861 1500.64,874.407ZM1291.44,1021.22C1210.22,1021.22 1169.61,958.124 1169.61,874.407C1169.61,790.689 1210.22,727.587 1291.44,727.587C1372.66,727.587 1413.28,790.689 1413.28,874.407C1413.28,958.124 1372.66,1021.22 1291.44,1021.22Z" style="fill:rgb(52,49,47);fill-rule:nonzero;"/>
        <path d="M1568.17,666.455L1568.17,1082.36L1810.44,1082.36L1810.44,1012.48L1655.54,1012.48L1655.54,666.455L1568.17,666.455Z" style="fill:rgb(52,49,47);fill-rule:nonzero;"/>
        <path d="M2060.17,658.96C1917.72,658.96 1833.47,748.205 1833.47,880.029C1833.47,1004.36 1916.47,1089.85 2054.55,1089.85C2107.04,1089.85 2163.84,1078.62 2202.53,1062.4L2202.53,892.524L2123.91,892.524L2123.91,1015.6C2107.66,1020.6 2085.79,1023.72 2065.8,1023.72C1969.57,1023.72 1920.84,974.367 1920.84,880.653C1920.84,778.194 1977.7,728.836 2067.05,728.836C2108.29,728.836 2144.5,737.584 2180.69,752.579L2193.17,684.54C2152.61,665.823 2109.53,658.96 2060.17,658.96Z" style="fill:rgb(52,49,47);fill-rule:nonzero;"/>
        <rect x="2286.93" y="666.455" width="87.365" height="415.901" style="fill:rgb(52,49,47);fill-rule:nonzero;"/>
    </g>
    <g transform="matrix(0.212634,0,0,0.212634,216.864,76.9433)">
        <path d="M812.486,503.324C617.667,503.324 502.458,625.372 502.458,805.648C502.458,975.671 615.96,1092.59 804.796,1092.59C876.573,1092.59 954.258,1077.24 1007.16,1055.05L1007.16,822.735L899.645,822.735L899.645,991.05C877.428,997.885 847.521,1002.16 820.177,1002.16C688.585,1002.16 621.934,934.66 621.934,806.502C621.934,666.382 699.693,598.883 821.886,598.883C878.282,598.883 927.805,610.847 977.297,631.352L994.364,538.305C938.898,512.709 879.991,503.324 812.486,503.324Z" style="fill:rgb(52,49,47);fill-rule:nonzero;"/>
        <path d="M1403.2,793.205C1403.2,708.255 1329.57,666.455 1226.47,666.455L1102.23,666.455L1102.23,1082.36L1189.59,1082.36L1189.59,930.58L1217.72,930.58L1338.3,1082.36L1446.92,1082.36L1306.46,914.36C1368.88,892.525 1403.2,851.952 1403.2,793.205ZM1315.84,795.08C1315.84,840.702 1275.21,864.451 1215.84,864.451L1189.59,864.451L1189.59,734.458L1225.84,734.458C1278.96,734.458 1315.84,753.207 1315.84,795.08Z" style="fill:rgb(52,49,47);fill-rule:nonzero;"/>
        <path d="M1720.33,666.455L1625.4,666.455L1467.41,1082.36L1557.96,1082.36L1587.31,994.913L1758.42,994.913L1787.77,1082.36L1878.32,1082.36L1720.33,666.455ZM1735.31,925.661L1610.42,925.661L1672.87,736.331L1735.31,925.661Z" style="fill:rgb(52,49,47);fill-rule:nonzero;"/>
        <path d="M2223.72,797.579C2223.72,708.255 2147.58,666.455 2047.6,666.455L1933.98,666.455L1933.98,1082.36L2021.35,1082.36L2021.35,934.328L2038.22,934.328C2141.97,934.328 2223.72,888.784 2223.72,797.579ZM2136.35,797.579C2136.35,843.826 2100.73,866.325 2042.6,866.325L2021.35,866.325L2021.35,734.458L2046.97,734.458C2101.98,734.458 2136.35,754.456 2136.35,797.579Z" style="fill:rgb(52,49,47);fill-rule:nonzero;"/>
        <path d="M2624.7,1082.36L2624.7,666.455L2537.34,666.455L2537.34,835.095L2364.88,835.095L2364.88,666.455L2277.51,666.455L2277.51,1082.36L2364.88,1082.36L2364.88,907.47L2537.34,907.47L2537.34,1082.36L2624.7,1082.36Z" style="fill:rgb(52,49,47);fill-rule:nonzero;"/>
        <rect x="2715.35" y="666.455" width="87.365" height="415.901" style="fill:rgb(52,49,47);fill-rule:nonzero;"/>
        <path d="M3094.4,658.96C2950.75,658.96 2873.37,750.076 2873.37,874.405C2873.37,998.733 2950.75,1089.85 3094.4,1089.85C3135.62,1089.85 3183.09,1081.74 3212.45,1067.39L3199.96,1003.11C3173.72,1013.1 3139.37,1019.98 3107.52,1019.98C3013.2,1019.98 2960.74,969.994 2960.74,874.405C2960.74,778.816 3013.2,728.836 3107.52,728.836C3139.37,728.836 3173.72,735.707 3199.96,745.703L3212.45,681.42C3183.09,667.07 3135.62,658.96 3094.4,658.96Z" style="fill:rgb(52,49,47);fill-rule:nonzero;"/>
        <path d="M3545.98,963.746C3545.98,891.273 3485.45,858.161 3419.24,830.046C3369.23,808.804 3355.48,797.558 3355.48,770.694C3355.48,741.33 3380.48,728.212 3416.74,728.212C3449.87,728.212 3482.95,737.581 3511.66,751.951L3527.88,685.163C3492.94,667.071 3456.74,658.96 3411.74,658.96C3324.28,658.96 3268.12,701.385 3268.12,778.191C3268.12,839.418 3309.93,874.405 3382.36,903.768C3433.61,924.386 3458.62,940.63 3458.62,970.618C3458.62,1003.11 3429.24,1020.6 3387.98,1020.6C3349.24,1020.6 3310.55,1009.35 3280.6,994.984L3262.49,1061.78C3299.94,1079.87 3346.74,1089.85 3390.48,1089.85C3484.2,1089.85 3545.98,1036.2 3545.98,963.746Z" style="fill:rgb(52,49,47);fill-rule:nonzero;"/>
    </g>
</svg>
