<?xml version="1.0" encoding="UTF-8"?>
<svg id="Layer_1" xmlns="http://www.w3.org/2000/svg" version="1.1" viewBox="0 0 240.94 74.81">
  <!-- Generator: Adobe Illustrator 29.6.0, SVG Export Plug-In . SVG Version: 2.1.1 Build 207)  -->
  <defs>
    <style>
      .st0 {
        fill: none;
      }

      .st1 {
        fill: #ff7262;
        fill-rule: evenodd;
      }
    </style>
  </defs>
  <rect class="st0" x=".1" y=".6" width="240.75" height="73.61"/>
  <path d="M99.52,39.63c-5.4,0-9.91-1.81-13.54-5.44-3.63-3.63-5.44-8.13-5.44-13.49s1.81-9.87,5.44-13.52c3.63-3.65,8.11-5.47,13.44-5.47,5.01,0,9.22,1.7,12.62,5.1.39.35.4.74.05,1.16l-2.68,2.89c-.32.39-.65.4-1,.05-2.66-2.28-5.66-3.42-8.99-3.42-3.68,0-6.76,1.25-9.23,3.76-2.47,2.51-3.71,5.65-3.71,9.44s1.24,6.92,3.73,9.41c2.49,2.49,5.64,3.73,9.47,3.73,3.3,0,5.96-.92,7.99-2.76,2.03-1.84,3.09-4.16,3.16-6.97h-10.94c-.49,0-.74-.25-.74-.74v-3.79c0-.49.25-.74.74-.74h15.78c.53,0,.79.26.79.79v2.58c0,4.98-1.53,9.12-4.6,12.44-3.07,3.31-7.18,4.97-12.33,4.97Z"/>
  <path d="M154.2,34.13c-3.67,3.67-8.13,5.5-13.39,5.5s-9.72-1.83-13.39-5.5c-3.67-3.66-5.5-8.14-5.5-13.44s1.83-9.83,5.5-13.49c3.66-3.66,8.13-5.5,13.39-5.5s9.72,1.83,13.39,5.5c3.66,3.66,5.5,8.16,5.5,13.49s-1.83,9.78-5.5,13.44ZM131.58,30.08c2.47,2.51,5.55,3.76,9.23,3.76s6.75-1.25,9.21-3.76c2.45-2.51,3.68-5.64,3.68-9.39s-1.23-6.93-3.68-9.44c-2.45-2.51-5.52-3.76-9.21-3.76s-6.76,1.25-9.23,3.76c-2.47,2.51-3.71,5.65-3.71,9.44s1.24,6.88,3.71,9.39Z"/>
  <path d="M184.84,33.68c.53,0,.79.26.79.79v3.68c0,.53-.26.79-.79.79h-17.36c-.49,0-.74-.26-.74-.79V2.91c0-.53.25-.79.74-.79h4.37c.53,0,.79.26.79.79v30.77h12.2Z"/>
  <path d="M210.03,39.63c-5.4,0-9.91-1.81-13.54-5.44-3.63-3.63-5.44-8.13-5.44-13.49s1.81-9.87,5.44-13.52c3.63-3.65,8.11-5.47,13.44-5.47,5.01,0,9.22,1.7,12.62,5.1.39.35.4.74.05,1.16l-2.68,2.89c-.32.39-.65.4-1,.05-2.66-2.28-5.66-3.42-8.99-3.42-3.68,0-6.76,1.25-9.23,3.76-2.47,2.51-3.71,5.65-3.71,9.44s1.24,6.92,3.73,9.41c2.49,2.49,5.65,3.73,9.47,3.73,3.3,0,5.96-.92,7.99-2.76,2.03-1.84,3.09-4.16,3.16-6.97h-10.94c-.49,0-.74-.25-.74-.74v-3.79c0-.49.25-.74.74-.74h15.78c.53,0,.79.26.79.79v2.58c0,4.98-1.53,9.12-4.6,12.44-3.07,3.31-7.18,4.97-12.33,4.97Z"/>
  <path d="M234.23,38.94c-.49,0-.74-.26-.74-.79V2.92c0-.53.25-.79.74-.79h4.36c.53,0,.79.26.79.79v35.24c0,.53-.26.79-.79.79h-4.36Z"/>
  <path d="M92.66,73.11c-3.38,0-6.25-1.15-8.6-3.46-2.35-2.3-3.52-5.16-3.52-8.56s1.17-6.26,3.5-8.58c2.34-2.31,5.17-3.47,8.51-3.47s5.99,1.1,8.14,3.3c.27.27.27.56,0,.87l-2.24,2.37c-.22.27-.47.29-.73.07-1.56-1.29-3.27-1.94-5.14-1.94-2.05,0-3.76.7-5.14,2.1-1.38,1.4-2.07,3.16-2.07,5.27s.7,3.87,2.1,5.26c1.4,1.39,3.18,2.09,5.34,2.09,1.78,0,3.2-.46,4.27-1.37s1.66-2.06,1.77-3.44h-6.04c-.33,0-.5-.17-.5-.5v-3.24c0-.33.17-.5.5-.5h10.08c.33,0,.5.17.5.5v2.17c0,3.16-.97,5.79-2.92,7.89-1.95,2.1-4.56,3.15-7.83,3.15Z"/>
  <path d="M123.41,72.08c.25.4.13.6-.33.6h-4.01c-.27,0-.47-.11-.6-.33l-4.94-7.84h-1.7v7.68c0,.33-.17.5-.5.5h-3.77c-.33,0-.5-.17-.5-.5v-22.37c0-.33.17-.5.5-.5h7.04c2.69,0,4.73.68,6.13,2.05,1.39,1.37,2.09,3.21,2.09,5.52,0,3.63-1.55,5.99-4.64,7.08l5.24,8.11ZM111.82,53.55v6.71h2.6c2.54,0,3.81-1.12,3.81-3.37s-1.27-3.34-3.81-3.34h-2.6Z"/>
  <path d="M146.43,72.11c.07.16.06.29-.03.4-.09.11-.22.17-.4.17h-3.94c-.29,0-.48-.13-.57-.4l-1.13-3.44h-8.81l-1.13,3.44c-.09.27-.28.4-.57.4h-3.94c-.42,0-.56-.19-.4-.57l7.81-22.4c.11-.27.32-.4.63-.4h4.04c.33,0,.55.13.63.4l7.81,22.4ZM132.91,64.6h6.08l-3.04-9.28-3.04,9.28Z"/>
  <path d="M150.16,72.68c-.33,0-.5-.17-.5-.5v-22.37c0-.33.17-.5.5-.5h7.04c2.69,0,4.73.68,6.12,2.05,1.39,1.37,2.09,3.21,2.09,5.52s-.7,4.19-2.09,5.56c-1.39,1.37-3.43,2.05-6.12,2.05h-2.77v7.68c0,.33-.17.5-.5.5h-3.77ZM154.44,60.26h2.6c2.54,0,3.81-1.12,3.81-3.37s-1.27-3.34-3.81-3.34h-2.6v6.71Z"/>
  <path d="M169.52,72.68c-.33,0-.5-.17-.5-.5v-22.37c0-.33.17-.5.5-.5h3.77c.33,0,.5.17.5.5v9.28h8.58v-9.28c0-.33.17-.5.5-.5h3.77c.33,0,.5.17.5.5v22.37c0,.33-.17.5-.5.5h-3.77c-.33,0-.5-.17-.5-.5v-8.88h-8.58v8.88c0,.33-.17.5-.5.5h-3.77Z"/>
  <path d="M192.26,72.68c-.33,0-.5-.17-.5-.5v-22.37c0-.33.17-.5.5-.5h3.77c.33,0,.5.17.5.5v22.37c0,.33-.17.5-.5.5h-3.77Z"/>
  <path d="M212.55,73.11c-3.36,0-6.21-1.15-8.54-3.46-2.34-2.3-3.5-5.16-3.5-8.56s1.17-6.26,3.5-8.58c2.34-2.31,5.18-3.47,8.54-3.47s5.93,1.12,8.18,3.37c.22.22.22.46,0,.7l-2.34,2.5c-.2.24-.43.26-.7.03-1.56-1.29-3.27-1.94-5.14-1.94-2.05,0-3.76.7-5.14,2.1-1.38,1.4-2.07,3.16-2.07,5.27s.68,3.87,2.05,5.26c1.37,1.39,3.09,2.09,5.16,2.09,1.87,0,3.58-.65,5.14-1.94.27-.22.5-.21.7.03l2.34,2.5c.22.22.22.44,0,.67-2.23,2.27-4.95,3.4-8.18,3.4Z"/>
  <path d="M231.58,73.08c-1.69,0-3.19-.35-4.49-1.03-1.3-.69-2.33-1.56-3.09-2.6-.18-.25-.16-.49.07-.73l1.94-2.24c.25-.29.5-.31.77-.07,1.49,1.54,3.06,2.3,4.71,2.3,1,0,1.8-.21,2.39-.63.59-.42.88-1.05.88-1.87,0-.71-.22-1.26-.65-1.64-.43-.38-1.15-.79-2.15-1.24l-2.84-1.34c-3.12-1.42-4.67-3.55-4.67-6.38,0-2.05.68-3.66,2.05-4.82,1.37-1.17,3.09-1.75,5.16-1.75,2.65,0,4.93,1.02,6.84,3.07.22.22.23.48.03.77l-1.9,2.3c-.22.29-.47.33-.73.13-1.45-1.27-2.8-1.9-4.07-1.9-.85,0-1.52.2-2.02.6-.5.4-.75.95-.75,1.64,0,.65.2,1.15.6,1.5.4.36,1.11.77,2.14,1.24l2.4,1.1c.76.36,1.39.7,1.9,1.02.51.32,1.05.75,1.62,1.29.57.53.99,1.17,1.27,1.9.28.73.42,1.57.42,2.5,0,2.23-.76,3.93-2.29,5.11-1.52,1.18-3.37,1.77-5.52,1.77Z"/>
  <path class="st1" d="M3.21,33.92c-1.94-1.59-2.23-4.46-.65-6.4,1.59-1.94,4.46-2.23,6.4-.65,1.96,2.27,3.02,3.77,4.37,5.13,1.31,1.32,2.84,2.41,5.02,4.34,1.44,1.34,1.53,3.59.19,5.03-1.34,1.44-3.59,1.53-5.03.19-2.02-1.97-3.2-3.35-4.64-4.43-1.49-1.11-3.12-1.81-5.65-3.23Z"/>
  <path class="st1" d="M20.68,48.85c-1.52-1.41-1.61-3.78-.2-5.3,1.41-1.52,3.78-1.6,5.3-.2,1.87,1.94,3.43,3.67,4.93,5.2,1.83,1.88,3.42,3.6,5.08,5.26,1.04,1.04,2.09,2.04,3.23,3.1,2.27,2.1,4.61,4.25,7.57,7.23,1.76,2.65,1.05,6.23-1.6,7.99-2.65,1.76-6.23,1.05-7.99-1.6-1.25-3.03-2.16-5.45-3.34-7.65-.91-1.7-1.78-3.22-2.87-4.62-1.35-1.73-2.94-3.26-4.74-4.92-1.55-1.42-3.34-2.83-5.37-4.51Z"/>
  <path class="st1" d="M10.52,18.16c-1.26-2.46-.28-5.47,2.17-6.73,2.46-1.26,5.47-.28,6.73,2.17,2.45,6.18,4.02,10.61,6.48,14.46.81,1.27,1.74,2.45,2.79,3.62,2.12,2.36,4.77,4.59,8.19,7.23,1.52,1.22,1.76,3.44.54,4.95-1.22,1.52-3.44,1.76-4.95.54-4.27-3.54-7.21-6.6-9.84-9.61-1.84-2.11-3.49-4.21-5.22-6.58-2.07-2.85-4.24-5.99-6.89-10.04Z"/>
  <path class="st1" d="M40.03,50.51c-1.39-1.12-1.61-3.15-.5-4.54,1.12-1.39,3.15-1.61,4.54-.49,2.63,2.05,4.83,3.87,7.32,5.31,2.4,1.39,5.02,2.33,8.19,3.49,2.18,1.09,3.07,3.76,1.98,5.94s-3.76,3.07-5.94,1.98l-15.59-11.69Z"/>
  <path class="st1" d="M22.49,8.66c-.66-3.11,1.33-6.17,4.45-6.83,3.11-.66,6.17,1.33,6.83,4.45.48,4.68,1.18,8.97,2.68,12.85,1.64,4.22,3.82,8,6.77,11.08,1.2,1.25,2.57,2.35,4.02,3.33,2.12,1.44,4.48,2.56,7,3.49,3.88,1.43,8.15,2.06,12.84,2.42,3.13.59,5.18,3.61,4.59,6.74-.59,3.12-3.61,5.18-6.74,4.59-6.52-1.98-12.07-4.59-16.94-7.89-2.1-1.43-4.07-2.91-5.93-4.52-1.26-1.09-2.46-2.21-3.65-3.35-2.94-2.84-5.54-6-7.91-9.54-3.26-4.87-5.93-10.37-8-16.8Z"/>
  <path class="st1" d="M62.36,23.98c.87-.18,1.78-.4,2.74-.63,3.18-.16,5.89,2.28,6.05,5.46.16,3.18-2.28,5.89-5.46,6.05-3.8-.5-6.97-1.17-9.78-2.35-1.45-.61-2.78-1.19-4.03-1.93-1.93-1.15-3.59-2.46-5.1-3.97-1.94-1.94-3.51-4.2-4.91-6.96-1.63-3.23-2.72-6.99-3.47-11.69.03-3.18,2.64-5.74,5.82-5.7,3.18.03,5.74,2.64,5.7,5.82-.52,2.81-1.01,5.23-.73,7.49.32,2.51.99,4.72,2.44,6.3.58.63,1.3,1.12,2.08,1.52,1.25.4,2.08-.64,2.17-1.81.09-1.18-.38-2.05-1.36-3.35-1.86-2.16-1.77-5.43.28-7.48s5.63-2.15,7.78,0,2.15,5.63,0,7.78c-.07.07-.13.13-.2.19-1.06,1.06-1.82,2.16-1.89,3.19-.07.92.38,2.09,1.86,2.07Z"/>
  <path class="st1" d="M6.52,54c-2.42-.65-3.86-3.13-3.21-5.55.65-2.42,3.13-3.86,5.55-3.21,2.79,1.04,5.24,2.28,7.42,3.82,1.58,1.11,3,2.31,4.34,3.63,1,.99,1.95,2.04,2.86,3.16,1.98,2.42,3.56,5.22,4.84,8.57.66,2.51-.85,5.07-3.35,5.73-2.51.66-5.07-.85-5.73-3.35-.25-1.76-.51-3.38-1.14-4.84-.66-1.54-1.44-2.98-2.58-4.09-2.26-2.2-5.44-3.19-8.99-3.86Z"/>
</svg>