<?xml version="1.0" encoding="UTF-8" standalone="no"?>
<!DOCTYPE svg PUBLIC "-//W3C//DTD SVG 1.1//EN" "http://www.w3.org/Graphics/SVG/1.1/DTD/svg11.dtd">
<svg width="100%" height="100%" viewBox="0 0 857 262" version="1.1" style="fill-rule:evenodd;clip-rule:evenodd;stroke-linejoin:round;stroke-miterlimit:2;">
    <g transform="matrix(1,0,0,1,-1241.94,-3028.01)">
        <g id="No-border" transform="matrix(0.856318,0,0,0.748083,1241.94,3028.01)">
            <rect x="0" y="0" width="1000" height="350" style="fill:none;"/>
            <g transform="matrix(3.34737,0,0,3.15385,-11322.2,-1983.41)">
                <g>
                    <g transform="matrix(0.109144,0,0,0.132601,3427.13,543.167)">
                        <path d="M720.73,1090.17C659.343,1090.17 608.022,1069.54 566.766,1028.28C525.51,987.027 504.882,935.906 504.882,874.918C504.882,813.931 525.51,762.709 566.766,721.254C608.022,679.798 658.945,659.07 719.534,659.07C776.535,659.07 824.368,678.403 863.034,717.068C867.418,721.054 867.618,725.439 863.632,730.222L833.138,763.108C829.55,767.492 825.764,767.692 821.777,763.706C791.483,737.796 757.402,724.841 719.534,724.841C677.68,724.841 642.701,739.091 614.599,767.592C586.497,796.093 572.446,831.868 572.446,874.918C572.446,917.968 586.597,953.644 614.898,981.945C643.2,1010.25 679.075,1024.4 722.523,1024.4C759.993,1024.4 790.287,1013.93 813.407,993.007C836.526,972.08 848.484,945.672 849.282,913.783L724.915,913.783C719.334,913.783 716.544,910.992 716.544,905.412L716.544,862.362C716.544,856.781 719.334,853.991 724.915,853.991L904.29,853.991C910.269,853.991 913.259,856.981 913.259,862.96L913.259,892.258C913.259,948.86 895.819,995.996 860.941,1033.66C826.063,1071.33 779.325,1090.17 720.73,1090.17Z" style="fill-rule:nonzero;"/>
                    </g>
                    <g transform="matrix(0.109144,0,0,0.132601,3427.13,543.167)">
                        <path d="M1342.36,1027.67C1300.69,1069.34 1249.96,1090.17 1190.15,1090.17C1130.35,1090.17 1079.61,1069.34 1037.95,1027.67C996.282,986.009 975.45,935.074 975.45,874.87C975.45,814.267 996.282,763.133 1037.95,721.469C1079.61,679.804 1130.35,658.972 1190.15,658.972C1249.96,658.972 1300.69,679.804 1342.36,721.469C1384.02,763.133 1404.85,814.267 1404.85,874.87C1404.85,935.074 1384.02,986.009 1342.36,1027.67ZM1085.19,981.623C1113.3,1010.13 1148.29,1024.38 1190.15,1024.38C1232.02,1024.38 1266.9,1010.13 1294.81,981.623C1322.72,953.116 1336.67,917.531 1336.67,874.87C1336.67,831.81 1322.72,796.026 1294.81,767.519C1266.9,739.012 1232.02,724.758 1190.15,724.758C1148.29,724.758 1113.3,739.012 1085.19,767.519C1057.08,796.026 1043.03,831.81 1043.03,874.87C1043.03,917.531 1057.08,953.116 1085.19,981.623Z" style="fill-rule:nonzero;"/>
                    </g>
                    <g transform="matrix(0.109144,0,0,0.132601,3427.13,543.167)">
                        <path d="M1690.72,1022.59C1696.7,1022.59 1699.69,1025.58 1699.69,1031.56L1699.69,1073.42C1699.69,1079.4 1696.7,1082.39 1690.72,1082.39L1493.37,1082.39C1487.78,1082.39 1484.99,1079.4 1484.99,1073.42L1484.99,672.727C1484.99,666.747 1487.78,663.757 1493.37,663.757L1543,663.757C1548.99,663.757 1551.98,666.747 1551.98,672.727L1551.98,1022.59L1690.72,1022.59Z" style="fill-rule:nonzero;"/>
                    </g>
                    <g transform="matrix(0.109144,0,0,0.132601,3427.13,543.167)">
                        <path d="M1977.13,1090.17C1915.75,1090.17 1864.43,1069.54 1823.17,1028.28C1781.91,987.027 1761.29,935.906 1761.29,874.918C1761.29,813.931 1781.91,762.709 1823.17,721.254C1864.43,679.798 1915.35,659.07 1975.94,659.07C2032.94,659.07 2080.77,678.403 2119.44,717.068C2123.82,721.054 2124.02,725.439 2120.04,730.222L2089.54,763.108C2085.95,767.492 2082.17,767.692 2078.18,763.706C2047.89,737.796 2013.81,724.841 1975.94,724.841C1934.08,724.841 1899.11,739.091 1871,767.592C1842.9,796.093 1828.85,831.868 1828.85,874.918C1828.85,917.968 1843,953.644 1871.3,981.945C1899.61,1010.25 1935.48,1024.4 1978.93,1024.4C2016.4,1024.4 2046.69,1013.93 2069.81,993.007C2092.93,972.08 2104.89,945.672 2105.69,913.783L1981.32,913.783C1975.74,913.783 1972.95,910.992 1972.95,905.412L1972.95,862.362C1972.95,856.781 1975.74,853.991 1981.32,853.991L2160.7,853.991C2166.67,853.991 2169.66,856.981 2169.66,862.96L2169.66,892.258C2169.66,948.86 2152.22,995.996 2117.35,1033.66C2082.47,1071.33 2035.73,1090.17 1977.13,1090.17Z" style="fill-rule:nonzero;"/>
                    </g>
                    <g transform="matrix(0.109144,0,0,0.132601,3427.13,543.167)">
                        <path d="M2252.18,1082.39C2246.6,1082.39 2243.8,1079.41 2243.8,1073.43L2243.8,672.822C2243.8,666.843 2246.6,663.854 2252.18,663.854L2301.8,663.854C2307.78,663.854 2310.77,666.843 2310.77,672.822L2310.77,1073.43C2310.77,1079.41 2307.78,1082.39 2301.8,1082.39L2252.18,1082.39Z" style="fill-rule:nonzero;"/>
                    </g>
                    <g transform="matrix(0.0692744,0,0,0.0841631,3447.6,646.45)">
                        <path d="M717.142,1090.17C656.553,1090.17 605.232,1069.54 563.178,1028.28C521.125,987.027 500.098,935.906 500.098,874.918C500.098,813.931 521.025,762.709 562.88,721.254C604.734,679.798 655.557,659.07 715.348,659.07C773.944,659.07 822.575,678.801 861.24,718.264C866.023,723.047 866.023,728.229 861.24,733.81L821.18,776.262C817.193,781.045 812.809,781.444 808.025,777.458C780.123,754.338 749.43,742.779 715.946,742.779C679.274,742.779 648.581,755.335 623.867,780.447C599.153,805.56 586.796,837.05 586.796,874.918C586.796,912.786 599.352,944.177 624.465,969.09C649.577,994.003 681.466,1006.46 720.132,1006.46C752.021,1006.46 777.532,998.288 796.665,981.945C815.798,965.602 826.361,945.074 828.355,920.36L720.132,920.36C714.152,920.36 711.163,917.37 711.163,911.391L711.163,853.393C711.163,847.414 714.152,844.424 720.132,844.424L900.702,844.424C906.682,844.424 909.671,847.414 909.671,853.393L909.671,892.258C909.671,948.86 892.232,995.996 857.353,1033.66C822.475,1071.33 775.738,1090.17 717.142,1090.17Z" style="fill-rule:nonzero;"/>
                    </g>
                    <g transform="matrix(0.0692744,0,0,0.0841631,3447.6,646.45)">
                        <path d="M1267.82,1071.63C1272.21,1078.81 1270.21,1082.39 1261.84,1082.39L1190.09,1082.39C1185.31,1082.39 1181.72,1080.4 1179.33,1076.42L1090.84,935.906L1060.35,935.906L1060.35,1073.43C1060.35,1079.41 1057.36,1082.39 1051.38,1082.39L983.813,1082.39C977.834,1082.39 974.844,1079.41 974.844,1073.43L974.844,672.822C974.844,666.843 977.834,663.854 983.813,663.854L1109.97,663.854C1158.2,663.854 1194.78,676.111 1219.69,700.625C1244.6,725.14 1257.06,758.125 1257.06,799.581C1257.06,864.554 1229.36,906.807 1173.95,926.339L1267.82,1071.63ZM1060.35,739.789L1060.35,859.97L1106.98,859.97C1152.42,859.97 1175.15,839.84 1175.15,799.581C1175.15,759.719 1152.42,739.789 1106.98,739.789L1060.35,739.789Z" style="fill-rule:nonzero;"/>
                    </g>
                    <g transform="matrix(0.0692744,0,0,0.0841631,3447.6,646.45)">
                        <path d="M1680.22,1072.23C1681.41,1075.02 1681.21,1077.41 1679.62,1079.41C1678.02,1081.4 1675.63,1082.39 1672.44,1082.39L1601.89,1082.39C1596.71,1082.39 1593.32,1080 1591.72,1075.22L1571.39,1013.63L1413.54,1013.63L1393.21,1075.22C1391.62,1080 1388.23,1082.39 1383.05,1082.39L1312.5,1082.39C1304.92,1082.39 1302.53,1079.01 1305.32,1072.23L1445.23,671.029C1447.23,666.245 1451.01,663.854 1456.59,663.854L1528.94,663.854C1534.92,663.854 1538.71,666.245 1540.3,671.029L1680.22,1072.23ZM1438.06,937.699L1546.88,937.699L1492.47,771.479L1438.06,937.699Z" style="fill-rule:nonzero;"/>
                    </g>
                    <g transform="matrix(0.0692744,0,0,0.0841631,3447.6,646.45)">
                        <path d="M1747.1,1082.39C1741.12,1082.39 1738.13,1079.41 1738.13,1073.43L1738.13,672.822C1738.13,666.843 1741.12,663.854 1747.1,663.854L1873.26,663.854C1921.49,663.854 1958.06,676.111 1982.97,700.625C2007.89,725.14 2020.34,758.125 2020.34,799.581C2020.34,841.435 2007.89,874.619 1982.97,899.134C1958.06,923.648 1921.49,935.906 1873.26,935.906L1823.63,935.906L1823.63,1073.43C1823.63,1079.41 1820.64,1082.39 1814.66,1082.39L1747.1,1082.39ZM1823.63,859.97L1870.27,859.97C1915.71,859.97 1938.43,839.84 1938.43,799.581C1938.43,759.719 1915.71,739.789 1870.27,739.789L1823.63,739.789L1823.63,859.97Z" style="fill-rule:nonzero;"/>
                    </g>
                    <g transform="matrix(0.0692744,0,0,0.0841631,3447.6,646.45)">
                        <path d="M2093.89,1082.39C2087.91,1082.39 2084.92,1079.41 2084.92,1073.43L2084.92,672.822C2084.92,666.843 2087.91,663.854 2093.89,663.854L2161.45,663.854C2167.43,663.854 2170.42,666.843 2170.42,672.822L2170.42,839.043L2324.09,839.043L2324.09,672.822C2324.09,666.843 2327.08,663.854 2333.05,663.854L2400.62,663.854C2406.6,663.854 2409.59,666.843 2409.59,672.822L2409.59,1073.43C2409.59,1079.41 2406.6,1082.39 2400.62,1082.39L2333.05,1082.39C2327.08,1082.39 2324.09,1079.41 2324.09,1073.43L2324.09,914.381L2170.42,914.381L2170.42,1073.43C2170.42,1079.41 2167.43,1082.39 2161.45,1082.39L2093.89,1082.39Z" style="fill-rule:nonzero;"/>
                    </g>
                    <g transform="matrix(0.0692744,0,0,0.0841631,3447.6,646.45)">
                        <path d="M2501.07,1082.39C2495.09,1082.39 2492.1,1079.41 2492.1,1073.43L2492.1,672.822C2492.1,666.843 2495.09,663.854 2501.07,663.854L2568.63,663.854C2574.61,663.854 2577.6,666.843 2577.6,672.822L2577.6,1073.43C2577.6,1079.41 2574.61,1082.39 2568.63,1082.39L2501.07,1082.39Z" style="fill-rule:nonzero;"/>
                    </g>
                    <g transform="matrix(0.0692744,0,0,0.0841631,3447.6,646.45)">
                        <path d="M2864.6,1090.17C2804.41,1090.17 2753.39,1069.54 2711.54,1028.28C2669.68,987.027 2648.76,935.906 2648.76,874.918C2648.76,813.931 2669.68,762.709 2711.54,721.254C2753.39,679.798 2804.41,659.07 2864.6,659.07C2922,659.07 2970.83,679.2 3011.09,719.46C3015.08,723.446 3015.08,727.631 3011.09,732.016L2969.24,776.86C2965.65,781.244 2961.47,781.444 2956.68,777.458C2928.78,754.338 2898.09,742.779 2864.6,742.779C2827.93,742.779 2797.24,755.335 2772.52,780.447C2747.81,805.56 2735.45,837.05 2735.45,874.918C2735.45,912.786 2747.71,944.177 2772.22,969.09C2796.74,994.003 2827.53,1006.46 2864.6,1006.46C2898.09,1006.46 2928.78,994.9 2956.68,971.781C2961.47,967.794 2965.65,967.994 2969.24,972.379L3011.09,1017.22C3015.08,1021.21 3015.08,1025.19 3011.09,1029.18C2971.23,1069.84 2922.4,1090.17 2864.6,1090.17Z" style="fill-rule:nonzero;"/>
                    </g>
                    <g transform="matrix(0.0692744,0,0,0.0841631,3447.6,646.45)">
                        <path d="M3205.41,1089.57C3175.12,1089.57 3148.31,1083.39 3124.99,1071.04C3101.68,1058.68 3083.24,1043.13 3069.69,1024.4C3066.5,1020.01 3066.9,1015.63 3070.88,1011.24L3105.56,971.183C3109.95,966.001 3114.53,965.602 3119.32,969.987C3146.02,997.491 3174.12,1011.24 3203.62,1011.24C3221.56,1011.24 3235.81,1007.46 3246.37,999.883C3256.93,992.309 3262.22,981.148 3262.22,966.399C3262.22,953.644 3258.33,943.878 3250.56,937.101C3242.78,930.325 3229.93,922.951 3211.99,914.979L3161.17,891.062C3105.36,865.551 3077.46,827.483 3077.46,776.86C3077.46,740.188 3089.72,711.388 3114.23,690.461C3138.75,669.534 3169.54,659.07 3206.61,659.07C3254.05,659.07 3294.9,677.406 3329.18,714.079C3333.17,718.065 3333.37,722.649 3329.78,727.831L3295.7,769.087C3291.71,774.269 3287.33,775.066 3282.55,771.479C3256.64,748.758 3232.32,737.397 3209.6,737.397C3194.45,737.397 3182.39,740.985 3173.43,748.16C3164.46,755.335 3159.97,765.101 3159.97,777.458C3159.97,789.017 3163.56,797.986 3170.74,804.364C3177.91,810.742 3190.67,818.116 3209,826.487L3252.05,846.218C3265.61,852.596 3276.97,858.675 3286.13,864.455C3295.3,870.234 3304.97,877.908 3315.13,887.474C3325.3,897.041 3332.87,908.401 3337.85,921.556C3342.84,934.71 3345.33,949.658 3345.33,966.399C3345.33,1006.26 3331.68,1036.75 3304.37,1057.88C3277.07,1079.01 3244.08,1089.57 3205.41,1089.57Z" style="fill-rule:nonzero;"/>
                    </g>
                </g>
                <g transform="matrix(0.156006,0,0,0.189535,3376.76,488.293)">
                    <g transform="matrix(0.557998,0.557998,-0.557998,0.557998,-25.366,160.167)">
                        <path d="M836.094,681.231C810.919,683.777 788.413,665.405 785.867,640.23C783.321,615.055 801.693,592.549 826.868,590.003C857.062,592.202 875.238,595.356 894.605,595.459C913.372,595.559 932.017,592.443 961.337,590.642C981.136,589.901 997.811,605.374 998.551,625.172C999.292,644.971 983.819,661.646 964.021,662.386C935.628,662.767 917.318,661.328 899.365,663.934C880.866,666.62 864.222,673.317 836.094,681.231Z" style="fill:rgb(255,114,98);"/>
                    </g>
                    <g transform="matrix(0.557998,0.557998,-0.557998,0.557998,-25.366,160.167)">
                        <path d="M1066.98,663.187C1046.14,663.967 1028.59,647.683 1027.81,626.846C1027.03,606.01 1043.32,588.46 1064.15,587.681C1091.29,588.215 1114.72,589.355 1136.36,589.654C1162.82,590.019 1186.4,590.885 1210.11,590.935C1224.96,590.966 1239.56,590.614 1255.19,590.029C1286.32,588.862 1318.35,587.425 1360.65,587.63C1392.08,593.93 1412.48,624.563 1406.18,655.994C1399.88,687.424 1369.25,707.827 1337.82,701.527C1307.33,688.822 1283.58,678.04 1259.5,670.748C1240.88,665.112 1223.88,660.474 1206.16,658.299C1184.2,655.605 1162,656.003 1137.33,657.06C1116.2,657.965 1093.4,660.685 1066.98,663.187Z" style="fill:rgb(255,114,98);"/>
                    </g>
                    <g transform="matrix(0.643356,0.643356,-0.643356,0.643356,28.5626,-80.5571)">
                        <path d="M818.051,677.232C795.083,669.82 782.454,645.155 789.866,622.187C797.278,599.22 821.943,586.59 844.911,594.002C898.238,617.086 935.336,634.721 974.35,643.277C987.252,646.107 1000.3,647.677 1013.93,648.408C1041.67,649.896 1071.79,647.272 1109.21,642.465C1126.1,640.622 1141.31,652.838 1143.15,669.728C1145,686.618 1132.78,701.828 1115.89,703.671C1067.61,708.161 1030.52,707.431 995.662,705.109C971.247,703.482 948.035,700.685 922.702,696.687C892.281,691.885 859.451,685.884 818.051,677.232Z" style="fill:rgb(255,114,98);"/>
                    </g>
                    <g transform="matrix(0.643356,0.643356,-0.643356,0.643356,28.5626,-80.5571)">
                        <path d="M1200.5,694.802C1185.02,696.492 1171.07,685.294 1169.38,669.811C1167.69,654.328 1178.89,640.387 1194.38,638.697C1223.32,635.128 1248.13,632.778 1272.44,626.313C1295.87,620.082 1317.86,609.69 1344.67,597.231C1364.94,590.491 1386.88,601.48 1393.62,621.756C1400.36,642.032 1389.37,663.966 1369.09,670.706L1200.5,694.802Z" style="fill:rgb(255,114,98);"/>
                    </g>
                    <g transform="matrix(0.571586,0.571586,-0.571586,0.571586,147.254,-42.1891)">
                        <path d="M800.546,683.135C774.32,666.062 766.89,630.908 783.963,604.683C801.036,578.457 836.19,571.026 862.416,588.099C898.3,617.359 933.023,642.346 970.483,658.88C1011.23,676.866 1052.74,688.001 1094.7,688.843C1111.79,689.186 1128.89,687.305 1145.82,684.08C1170.62,679.357 1194.76,670.703 1218.78,659.628C1255.74,642.587 1289.84,617.282 1324.96,587.106C1350.83,569.489 1386.13,576.186 1403.74,602.05C1421.36,627.915 1414.66,663.215 1388.8,680.832C1329.62,712.431 1272.88,732.936 1216.08,743.785C1191.54,748.473 1167.49,751.856 1143.32,753.6C1127.03,754.776 1110.83,755.396 1094.59,755.674C1054.33,756.365 1014.25,752.487 973.132,744.355C916.572,733.167 859.702,713.461 800.546,683.135Z" style="fill:rgb(255,114,98);"/>
                    </g>
                    <g transform="matrix(0.320358,0.320358,-0.320358,0.320358,324.086,330.757)">
                        <path d="M1255.49,608.047C1264.1,594.974 1272.68,580.948 1281.77,566.194C1319.18,524.742 1383.2,521.456 1424.65,558.862C1466.11,596.268 1469.39,660.291 1431.99,701.743C1378.53,742.744 1331.03,773.725 1281.34,793.93C1255.73,804.346 1231.95,813.68 1207.39,819.934C1169.18,829.665 1132.35,833.952 1094.76,834.013C1046.6,834.091 998.963,825.484 947.456,808.503C887.165,788.626 826.861,755.434 759.236,706.435C720.151,666.562 720.791,602.458 760.664,563.373C800.537,524.287 864.64,524.927 903.726,564.8C932.157,606.244 956.138,642.289 987.746,666.829C1022.83,694.071 1058.57,713.193 1096.2,714.78C1111.24,715.414 1126.26,712.458 1140.88,707.847C1161.42,697.285 1158.75,674.154 1145.4,658.469C1131.94,642.67 1115.21,637.662 1086.95,633.701C1037.01,629.998 997.591,588.256 997.591,537.379C997.591,484.07 1040.87,440.79 1094.18,440.79C1147.49,440.79 1190.77,484.07 1190.77,537.379C1190.77,539.03 1190.73,540.671 1190.65,542.301C1190.66,568.715 1194.84,591.713 1206.76,605.449C1217.42,617.739 1237.37,626.612 1255.49,608.047Z" style="fill:rgb(255,114,98);"/>
                    </g>
                    <g transform="matrix(0.24281,0.24281,-0.24281,0.24281,49.1272,775.418)">
                        <path d="M884.098,726.54C833.917,755.58 769.599,738.416 740.559,688.234C711.518,638.053 728.682,573.735 778.864,544.695C841.563,515.95 902.129,496.25 962.961,485.631C1006.92,477.958 1050.05,474.33 1093.51,474.122C1126.26,473.965 1158.86,475.656 1192.06,479.006C1264.03,486.268 1335.96,506.127 1411.81,540.101C1463.62,570.417 1481.06,637.089 1450.75,688.896C1420.43,740.703 1353.76,758.151 1301.95,727.836C1269.08,703.159 1238.19,680.732 1203.97,667.105C1167.95,652.764 1131.58,641.943 1094.62,642.422C1021.64,643.367 953.182,679.282 884.098,726.54Z" style="fill:rgb(255,114,98);"/>
                    </g>
                </g>
            </g>
        </g>
    </g>
</svg>
