<?xml version="1.0" encoding="UTF-8" standalone="no"?><!DOCTYPE svg PUBLIC "-//W3C//DTD SVG 1.1//EN" "http://www.w3.org/Graphics/SVG/1.1/DTD/svg11.dtd"><svg width="100%" height="100%" viewBox="0 0 1000 350" version="1.1" style="fill-rule:evenodd;clip-rule:evenodd;stroke-linejoin:round;stroke-miterlimit:2;"><g><path d="M27.216,157.002c-7.556,-6.168 -8.682,-17.31 -2.514,-24.866c6.168,-7.556 17.31,-8.682 24.865,-2.514c7.631,8.829 11.726,14.643 16.976,19.95c5.088,5.142 11.02,9.375 19.503,16.876c5.598,5.195 5.926,13.957 0.731,19.555c-5.194,5.599 -13.957,5.927 -19.555,0.732c-7.843,-7.635 -12.441,-13.018 -18.045,-17.201c-5.775,-4.311 -12.137,-7.022 -21.961,-12.532Z" style="fill:#f37062;"/><path d="M95.066,215.016c-5.892,-5.467 -6.237,-14.689 -0.77,-20.581c5.467,-5.892 14.689,-6.237 20.581,-0.77c7.251,7.543 13.328,14.241 19.143,20.219c7.112,7.311 13.305,13.976 19.753,20.451c4.04,4.057 8.117,7.942 12.535,12.041c8.803,8.167 17.925,16.506 29.399,28.091c6.849,10.284 4.061,24.195 -6.223,31.045c-10.285,6.849 -24.195,4.061 -31.045,-6.223c-4.846,-11.772 -8.381,-21.184 -12.958,-29.737c-3.537,-6.609 -6.907,-12.508 -11.146,-17.932c-5.251,-6.72 -11.409,-12.661 -18.421,-19.097c-6.007,-5.514 -12.964,-10.988 -20.848,-17.507Z" style="fill:#f37062;"/><path d="M55.603,95.753c-4.889,-9.548 -1.107,-21.268 8.441,-26.157c9.547,-4.888 21.268,-1.106 26.156,8.441c9.505,24.014 15.621,41.215 25.193,56.164c3.166,4.944 6.773,9.539 10.825,14.05c8.251,9.186 18.543,17.829 31.812,28.077c5.888,4.729 6.828,13.348 2.1,19.235c-4.729,5.887 -13.348,6.828 -19.235,2.099c-16.584,-13.761 -28.01,-25.647 -38.236,-37.332c-7.162,-8.183 -13.577,-16.357 -20.282,-25.575c-8.051,-11.069 -16.483,-23.273 -26.774,-39.002Z" style="fill:#f37062;"/><path d="M170.271,221.465c-5.396,-4.335 -6.259,-12.236 -1.924,-17.632c4.335,-5.397 12.235,-6.259 17.632,-1.925c10.217,7.974 18.754,15.034 28.424,20.641c9.321,5.404 19.5,9.052 31.839,13.56c8.491,4.254 11.93,14.6 7.676,23.091c-4.253,8.49 -14.6,11.929 -23.09,7.676l-60.557,-45.411Z" style="fill:#f37062;"/><path d="M102.109,58.833c-2.556,-12.089 5.184,-23.979 17.274,-26.535c12.089,-2.555 23.979,5.185 26.535,17.275c1.849,18.189 4.568,34.86 10.411,49.936c6.355,16.399 14.837,31.098 26.316,43.048c4.674,4.866 9.976,9.117 15.604,12.944c8.242,5.605 17.397,9.928 27.196,13.542c15.078,5.562 31.665,8.018 49.897,9.399c12.14,2.303 20.127,14.029 17.824,26.169c-2.303,12.14 -14.029,20.127 -26.17,17.824c-25.344,-7.699 -46.913,-17.818 -65.801,-30.648c-8.161,-5.543 -15.82,-11.313 -23.056,-17.574c-4.875,-4.219 -9.572,-8.57 -14.184,-13.027c-11.434,-11.047 -21.542,-23.321 -30.752,-37.072c-12.669,-18.916 -23.045,-40.297 -31.094,-65.281Z" style="fill:#f37062;"/><path d="M257.023,118.376c3.393,-0.698 6.931,-1.55 10.662,-2.437c12.34,-0.633 22.873,8.872 23.507,21.212c0.633,12.34 -8.872,22.873 -21.212,23.507c-14.782,-1.95 -27.064,-4.535 -38.001,-9.149c-5.638,-2.378 -10.82,-4.638 -15.641,-7.503c-7.502,-4.456 -13.937,-9.549 -19.828,-15.421c-7.55,-7.525 -13.657,-16.326 -19.06,-27.044c-6.325,-12.546 -10.567,-27.176 -13.482,-45.427c0.123,-12.356 10.255,-22.287 22.611,-22.164c12.356,0.123 22.287,10.255 22.164,22.611c-2.036,10.935 -3.924,20.328 -2.818,29.114c1.227,9.754 3.827,18.338 9.467,24.475c2.255,2.454 5.068,4.341 8.078,5.908c4.866,1.561 8.069,-2.476 8.434,-7.021c0.367,-4.577 -1.469,-7.98 -5.271,-13.022c-7.235,-8.394 -6.872,-21.095 1.09,-29.056c8.342,-8.342 21.888,-8.342 30.23,-0c8.342,8.342 8.342,21.888 0,30.23c-0.258,0.258 -0.521,0.509 -0.789,0.751c-4.131,4.136 -7.076,8.389 -7.361,12.403c-0.255,3.591 1.479,8.102 7.22,8.033Z" style="fill:#f37062;"/><path d="M40.081,234.996c-9.396,-2.508 -14.989,-12.172 -12.481,-21.568c2.507,-9.397 12.172,-14.989 21.568,-12.482c10.846,4.027 20.366,8.874 28.841,14.83c6.123,4.303 11.67,8.989 16.849,14.119c3.903,3.866 7.569,7.934 11.109,12.268c7.675,9.398 13.851,20.285 18.818,33.31c2.549,9.741 -3.29,19.718 -13.03,22.267c-9.74,2.549 -19.718,-3.289 -22.267,-13.029c-0.971,-6.826 -1.976,-13.15 -4.418,-18.825c-2.571,-5.973 -5.602,-11.571 -10.043,-15.898c-8.767,-8.543 -21.147,-12.403 -34.946,-14.992Z" style="fill:#f37062;"/></g><g><path d="M413.622,136.452c-4.607,3.159 -9.609,5.594 -15.005,7.305c-5.397,1.711 -11.057,2.567 -16.98,2.567c-7.897,0 -15.334,-1.514 -22.31,-4.541c-6.976,-3.027 -13.097,-7.108 -18.362,-12.241c-5.265,-5.133 -9.411,-11.188 -12.438,-18.164c-3.028,-6.976 -4.541,-14.413 -4.541,-22.311c-0,-7.897 1.513,-15.334 4.541,-22.31c3.027,-6.976 7.173,-13.031 12.438,-18.164c5.265,-5.133 11.386,-9.214 18.362,-12.241c6.976,-3.028 14.413,-4.541 22.31,-4.541c7.108,-0 13.952,1.349 20.533,4.047c6.582,2.699 12.373,6.285 17.375,10.761c0.263,0.526 0.395,0.855 0.395,0.987c-0,0.395 -0.329,0.921 -0.987,1.579c-0.659,0.527 -1.514,1.284 -2.567,2.271c-1.053,0.987 -2.501,2.402 -4.344,4.245c-0.658,0.658 -1.316,0.987 -1.974,0.987c-0.527,-0 -0.987,-0.198 -1.382,-0.593c-4.08,-3.159 -8.26,-5.594 -12.537,-7.305c-4.278,-1.711 -9.181,-2.566 -14.709,-2.566c-6.187,-0 -11.847,1.118 -16.98,3.356c-5.133,2.238 -9.51,5.298 -13.129,9.181c-3.62,3.883 -6.45,8.49 -8.49,13.82c-2.04,5.331 -3.061,11.024 -3.061,17.079c0,6.581 1.119,12.537 3.357,17.868c2.238,5.331 5.232,9.839 8.983,13.524c3.752,3.686 8.161,6.516 13.229,8.49c5.067,1.974 10.431,2.961 16.091,2.961c4.212,0 8.95,-0.691 14.215,-2.073c5.265,-1.382 10.398,-4.245 15.4,-8.588l0,-19.744l-22.31,0c-1.185,0 -1.777,-0.592 -1.777,-1.777l-0,-10.266c-0,-1.185 0.592,-1.777 1.777,-1.777l36.328,-0c1.185,-0 1.777,0.592 1.777,1.777l0,53.505c0,1.185 -0.592,1.777 -1.777,1.777l-4.343,-0c-0.922,-0 -1.843,-0.724 -2.765,-2.172l-4.343,-6.713Z" style="fill:#34312f;fill-rule:nonzero;"/><path d="M487.266,133.293c3.422,0 6.68,-0.691 9.773,-2.073c3.093,-1.382 5.791,-3.29 8.095,-5.726c2.303,-2.435 4.113,-5.363 5.429,-8.785c1.316,-3.423 1.975,-7.108 1.975,-11.057c-0,-3.949 -0.659,-7.535 -1.975,-10.76c-1.316,-3.225 -3.126,-5.956 -5.429,-8.194c-2.304,-2.237 -5.002,-3.949 -8.095,-5.133c-3.093,-1.185 -6.351,-1.777 -9.773,-1.777c-3.423,-0 -6.614,0.592 -9.576,1.777c-2.962,1.184 -5.594,2.896 -7.897,5.133c-2.304,2.238 -4.114,4.969 -5.43,8.194c-1.316,3.225 -1.974,6.811 -1.974,10.76c-0,3.949 0.658,7.634 1.974,11.057c1.316,3.422 3.126,6.35 5.43,8.785c2.303,2.436 4.935,4.344 7.897,5.726c2.962,1.382 6.153,2.073 9.576,2.073Zm0.197,13.031c-5.528,0 -10.793,-1.086 -15.795,-3.258c-5.002,-2.171 -9.345,-5.1 -13.031,-8.786c-3.685,-3.685 -6.614,-7.996 -8.786,-12.932c-2.171,-4.936 -3.257,-10.234 -3.257,-15.893c-0,-5.529 1.086,-10.695 3.257,-15.499c2.172,-4.804 5.101,-9.049 8.786,-12.735c3.686,-3.685 8.029,-6.581 13.031,-8.687c5.002,-2.106 10.267,-3.159 15.795,-3.159c5.528,-0 10.793,1.053 15.795,3.159c5.002,2.106 9.345,5.002 13.031,8.687c3.685,3.686 6.614,7.931 8.786,12.735c2.172,4.804 3.258,9.97 3.258,15.499c-0,5.659 -1.086,10.957 -3.258,15.893c-2.172,4.936 -5.101,9.247 -8.786,12.932c-3.686,3.686 -8.029,6.615 -13.031,8.786c-5.002,2.172 -10.267,3.258 -15.795,3.258Z" style="fill:#34312f;fill-rule:nonzero;"/><path d="M549.063,34.97c0,-1.185 0.593,-1.777 1.777,-1.777l12.241,-0c1.185,-0 1.777,0.592 1.777,1.777l0,108.59c0,1.185 -0.592,1.777 -1.777,1.777l-12.241,-0c-1.184,-0 -1.777,-0.592 -1.777,-1.777l0,-108.59Z" style="fill:#34312f;fill-rule:nonzero;"/><path d="M625.274,133.293c3.291,0 6.417,-0.691 9.378,-2.073c2.962,-1.382 5.594,-3.29 7.898,-5.726c2.303,-2.435 4.113,-5.363 5.429,-8.785c1.316,-3.423 1.975,-7.108 1.975,-11.057c-0,-3.949 -0.692,-7.503 -2.074,-10.662c-1.382,-3.158 -3.191,-5.89 -5.429,-8.193c-2.238,-2.304 -4.837,-4.048 -7.799,-5.232c-2.961,-1.185 -6.087,-1.777 -9.378,-1.777c-3.422,-0 -6.581,0.625 -9.477,1.876c-2.896,1.25 -5.397,2.994 -7.503,5.232c-2.106,2.237 -3.784,4.936 -5.034,8.094c-1.251,3.159 -1.876,6.713 -1.876,10.662c0,3.817 0.625,7.404 1.876,10.76c1.25,3.357 2.928,6.285 5.034,8.786c2.106,2.501 4.607,4.476 7.503,5.923c2.896,1.448 6.055,2.172 9.477,2.172Zm40.474,14.611c0,7.107 -1.118,12.965 -3.356,17.571c-2.238,4.607 -5.166,8.293 -8.786,11.057c-3.62,2.764 -7.634,4.705 -12.044,5.824c-4.409,1.119 -8.785,1.678 -13.129,1.678c-6.713,0 -12.504,-0.493 -17.375,-1.48c-4.87,-0.988 -9.345,-2.995 -13.425,-6.022c-0.658,-0.395 -0.987,-0.922 -0.987,-1.58c-0,-0.263 0.131,-0.526 0.394,-0.789l3.949,-9.082c0.263,-0.132 0.494,-0.264 0.691,-0.395c0.198,-0.132 0.428,-0.198 0.691,-0.198c0.132,0 0.461,0.132 0.987,0.395c4.212,2.238 8.293,3.587 12.242,4.048c3.948,0.46 7.436,0.691 10.464,0.691c4.738,-0 8.621,-0.494 11.648,-1.481c3.028,-0.987 5.43,-2.369 7.207,-4.146c1.777,-1.777 2.994,-3.982 3.652,-6.615c0.659,-2.632 1.119,-5.659 1.383,-9.082l-0,-12.241c-2.238,2.633 -4.574,4.64 -7.009,6.022c-2.436,1.382 -4.936,2.369 -7.503,2.962c-2.567,0.592 -5.068,0.954 -7.503,1.086c-2.435,0.131 -4.705,0.197 -6.811,0.197c-5.134,0 -9.872,-1.086 -14.216,-3.258c-4.343,-2.171 -8.095,-5.1 -11.254,-8.786c-3.159,-3.685 -5.627,-7.996 -7.403,-12.932c-1.777,-4.936 -2.666,-10.234 -2.666,-15.893c0,-5.923 0.823,-11.32 2.468,-16.19c1.645,-4.87 4.08,-9.082 7.305,-12.636c3.225,-3.554 7.24,-6.318 12.044,-8.292c4.804,-1.975 10.365,-2.962 16.683,-2.962c0.922,-0 2.468,0.099 4.64,0.296c2.172,0.198 4.574,0.691 7.207,1.481c2.632,0.79 5.297,1.974 7.996,3.554c2.698,1.579 5.1,3.685 7.206,6.318l0.79,-8.885c0.526,-1.185 1.382,-1.777 2.567,-1.777l9.477,0c1.184,0 1.776,0.592 1.776,1.777l0,79.765Z" style="fill:#34312f;fill-rule:nonzero;"/><path d="M693.39,68.139c-0,-1.185 0.592,-1.777 1.777,-1.777l12.241,0c1.184,0 1.777,0.592 1.777,1.777l-0,75.421c-0,1.185 -0.593,1.777 -1.777,1.777l-12.241,-0c-1.185,-0 -1.777,-0.592 -1.777,-1.777l-0,-75.421Zm-2.172,-20.731c-0,-2.764 1.02,-5.166 3.06,-7.206c2.04,-2.04 4.377,-3.06 7.009,-3.06c2.896,-0 5.364,1.02 7.404,3.06c2.04,2.04 3.06,4.442 3.06,7.206c0,2.764 -1.02,5.134 -3.06,7.108c-2.04,1.974 -4.508,2.962 -7.404,2.962c-2.632,-0 -4.969,-0.988 -7.009,-2.962c-2.04,-1.974 -3.06,-4.344 -3.06,-7.108Z" style="fill:#34312f;fill-rule:nonzero;"/></g><g><path d="M413.622,289.071c-4.607,3.159 -9.609,5.594 -15.005,7.305c-5.397,1.711 -11.057,2.567 -16.98,2.567c-7.897,-0 -15.334,-1.514 -22.31,-4.541c-6.976,-3.028 -13.097,-7.108 -18.362,-12.242c-5.265,-5.133 -9.411,-11.188 -12.438,-18.164c-3.028,-6.976 -4.541,-14.413 -4.541,-22.31c-0,-7.898 1.513,-15.334 4.541,-22.31c3.027,-6.976 7.173,-13.031 12.438,-18.165c5.265,-5.133 11.386,-9.213 18.362,-12.241c6.976,-3.027 14.413,-4.541 22.31,-4.541c7.108,0 13.952,1.349 20.533,4.048c6.582,2.698 12.373,6.285 17.375,10.76c0.263,0.527 0.395,0.856 0.395,0.987c-0,0.395 -0.329,0.922 -0.987,1.58c-0.659,0.526 -1.514,1.283 -2.567,2.27c-1.053,0.987 -2.501,2.402 -4.344,4.245c-0.658,0.658 -1.316,0.987 -1.974,0.987c-0.527,0 -0.987,-0.197 -1.382,-0.592c-4.08,-3.159 -8.26,-5.594 -12.537,-7.305c-4.278,-1.711 -9.181,-2.567 -14.709,-2.567c-6.187,0 -11.847,1.119 -16.98,3.357c-5.133,2.237 -9.51,5.298 -13.129,9.18c-3.62,3.883 -6.45,8.49 -8.49,13.821c-2.04,5.331 -3.061,11.024 -3.061,17.078c0,6.581 1.119,12.537 3.357,17.868c2.238,5.331 5.232,9.839 8.983,13.525c3.752,3.685 8.161,6.515 13.229,8.489c5.067,1.975 10.431,2.962 16.091,2.962c4.212,0 8.95,-0.691 14.215,-2.073c5.265,-1.382 10.398,-4.245 15.4,-8.589l0,-19.743l-22.31,-0c-1.185,-0 -1.777,-0.593 -1.777,-1.777l-0,-10.267c-0,-1.184 0.592,-1.777 1.777,-1.777l36.328,0c1.185,0 1.777,0.593 1.777,1.777l0,53.505c0,1.185 -0.592,1.777 -1.777,1.777l-4.343,0c-0.922,0 -1.843,-0.724 -2.765,-2.171l-4.343,-6.713Z" style="fill:#34312f;fill-rule:nonzero;"/><path d="M492.399,231.814c-4.738,0 -8.621,0.823 -11.649,2.468c-3.027,1.645 -5.363,3.751 -7.009,6.318c-1.645,2.567 -2.797,5.43 -3.455,8.589c-0.658,3.159 -0.987,6.318 -0.987,9.477l-0,37.512c-0,1.185 -0.592,1.777 -1.777,1.777l-12.241,0c-1.185,0 -1.777,-0.592 -1.777,-1.777l0,-75.42c0,-1.185 0.592,-1.777 1.777,-1.777l9.477,-0c1.053,-0 1.908,0.592 2.567,1.777l0.987,8.489c1.579,-2.632 3.455,-4.705 5.627,-6.219c2.172,-1.513 4.376,-2.632 6.614,-3.356c2.237,-0.724 4.442,-1.185 6.614,-1.382c2.172,-0.198 4.047,-0.296 5.627,-0.296l2.961,-0c1.185,-0 1.777,0.592 1.777,1.776l0,10.267c0,1.185 -0.592,1.777 -1.777,1.777l-3.356,0Z" style="fill:#34312f;fill-rule:nonzero;"/><path d="M540.376,285.912c0.527,-0 1.481,-0.099 2.863,-0.296c1.382,-0.198 2.929,-0.56 4.64,-1.086c1.711,-0.527 3.488,-1.284 5.331,-2.271c1.842,-0.987 3.553,-2.27 5.133,-3.85l-0,-8.095c-0.921,-1.448 -2.172,-2.731 -3.751,-3.85c-1.58,-1.119 -3.324,-2.04 -5.232,-2.764c-1.909,-0.724 -3.85,-1.283 -5.825,-1.678c-1.974,-0.395 -3.751,-0.592 -5.331,-0.592c-5.923,-0 -9.904,1.086 -11.945,3.257c-2.04,2.172 -3.06,5.101 -3.06,8.786c0,5.002 1.349,8.326 4.048,9.971c2.698,1.645 7.074,2.468 13.129,2.468Zm-26.456,-63.18c5.001,-2.238 9.279,-3.587 12.833,-4.047c3.554,-0.461 6.844,-0.691 9.872,-0.691c12.109,-0 21.389,3.093 27.838,9.279c6.45,6.186 9.675,14.874 9.675,26.062l-0,42.843c-0,1.185 -0.592,1.777 -1.777,1.777l-8.095,0c-1.185,0 -2.04,-0.592 -2.567,-1.777l-0.592,-7.7c-1.579,2.633 -3.62,4.64 -6.121,6.022c-2.5,1.382 -4.935,2.402 -7.305,3.061c-2.369,0.658 -4.475,1.053 -6.318,1.184c-1.842,0.132 -2.961,0.198 -3.356,0.198c-2.106,-0 -4.87,-0.264 -8.292,-0.79c-3.423,-0.527 -6.779,-1.678 -10.07,-3.455c-3.29,-1.777 -6.153,-4.443 -8.588,-7.996c-2.435,-3.554 -3.653,-8.293 -3.653,-14.216c0,-4.08 0.79,-7.667 2.369,-10.76c1.58,-3.093 3.719,-5.627 6.417,-7.602c2.698,-1.974 5.792,-3.455 9.28,-4.442c3.488,-0.987 7.206,-1.481 11.155,-1.481c3.422,0 7.108,0.658 11.056,1.975c3.949,1.316 7.503,3.685 10.662,7.107c-0,-9.477 -2.106,-15.992 -6.318,-19.546c-4.212,-3.554 -10.267,-5.331 -18.164,-5.331c-1.185,0 -3.028,0.198 -5.528,0.593c-2.501,0.395 -5.331,0.921 -8.49,1.579c-0.395,0.132 -0.691,0.231 -0.889,0.296c-0.197,0.066 -0.428,0.099 -0.691,0.099c-0.658,0 -1.184,-0.461 -1.579,-1.382l-2.962,-7.108c-0.395,-0.789 -0.592,-1.513 -0.592,-2.171c-0,-0.659 0.263,-1.185 0.79,-1.58Z" style="fill:#34312f;fill-rule:nonzero;"/><path d="M641.266,285.912c3.291,-0 6.417,-0.724 9.379,-2.172c2.961,-1.448 5.495,-3.422 7.601,-5.923c2.106,-2.501 3.784,-5.43 5.034,-8.786c1.251,-3.356 1.876,-6.943 1.876,-10.76c0,-3.949 -0.625,-7.503 -1.876,-10.662c-1.25,-3.159 -2.928,-5.857 -5.034,-8.095c-2.106,-2.237 -4.64,-3.981 -7.601,-5.232c-2.962,-1.25 -6.088,-1.876 -9.379,-1.876c-3.29,0 -6.416,0.593 -9.378,1.777c-2.961,1.185 -5.594,2.929 -7.897,5.232c-2.304,2.304 -4.114,5.035 -5.43,8.194c-1.316,3.159 -1.974,6.713 -1.974,10.662c-0,3.948 0.658,7.634 1.974,11.056c1.316,3.422 3.126,6.351 5.43,8.786c2.303,2.435 4.936,4.344 7.897,5.726c2.962,1.382 6.088,2.073 9.378,2.073Zm-24.679,44.028c-0,1.185 -0.593,1.777 -1.777,1.777l-12.241,0c-1.185,0 -1.777,-0.592 -1.777,-1.777l-0,-109.182c-0,-1.185 0.592,-1.777 1.777,-1.777l9.477,-0c1.053,-0 1.908,0.592 2.566,1.777l0.79,8.884c2.106,-2.632 4.508,-4.738 7.207,-6.318c2.698,-1.579 5.363,-2.764 7.996,-3.554c2.632,-0.789 5.034,-1.283 7.206,-1.48c2.172,-0.198 3.719,-0.296 4.64,-0.296c6.318,-0 11.879,0.987 16.683,2.961c4.805,1.974 8.819,4.739 12.044,8.292c3.225,3.554 5.66,7.766 7.305,12.636c1.645,4.87 2.468,10.267 2.468,16.19c0,5.66 -0.888,10.958 -2.665,15.894c-1.777,4.936 -4.245,9.246 -7.404,12.932c-3.159,3.685 -6.91,6.614 -11.254,8.786c-4.344,2.172 -9.082,3.258 -14.216,3.258c-2.106,-0 -4.376,-0.066 -6.811,-0.198c-2.435,-0.131 -4.936,-0.493 -7.503,-1.086c-2.566,-0.592 -5.1,-1.579 -7.601,-2.961c-2.501,-1.382 -4.804,-3.39 -6.91,-6.022l-0,41.264Z" style="fill:#34312f;fill-rule:nonzero;"/><path d="M717.477,227.471c1.974,-2.37 4.146,-4.18 6.515,-5.43c2.37,-1.25 4.706,-2.172 7.009,-2.764c2.304,-0.592 4.41,-0.954 6.318,-1.086c1.909,-0.132 3.324,-0.197 4.245,-0.197c6.713,-0 12.208,0.921 16.486,2.764c4.278,1.842 7.7,4.442 10.267,7.798c2.566,3.357 4.343,7.371 5.331,12.044c0.987,4.673 1.48,9.905 1.48,15.696l0,39.882c0,1.185 -0.592,1.777 -1.777,1.777l-12.241,0c-1.184,0 -1.777,-0.592 -1.777,-1.777l0,-40.079c0,-3.291 -0.164,-6.351 -0.493,-9.181c-0.329,-2.83 -1.185,-5.331 -2.567,-7.503c-1.382,-2.171 -3.488,-3.882 -6.318,-5.133c-2.83,-1.25 -6.68,-1.876 -11.55,-1.876c-3.422,0 -6.449,0.659 -9.082,1.975c-2.632,1.316 -4.837,3.093 -6.614,5.331c-1.777,2.237 -3.093,4.804 -3.949,7.7c-0.855,2.895 -1.283,5.989 -1.283,9.279l-0,39.487c-0,1.185 -0.592,1.777 -1.777,1.777l-12.241,0c-1.185,0 -1.777,-0.592 -1.777,-1.777l-0,-108.59c-0,-1.184 0.592,-1.777 1.777,-1.777l11.451,0c1.053,0 1.909,0.593 2.567,1.777l-0,39.883Z" style="fill:#34312f;fill-rule:nonzero;"/><path d="M800.795,220.758c0,-1.185 0.592,-1.777 1.777,-1.777l12.241,-0c1.185,-0 1.777,0.592 1.777,1.777l0,75.42c0,1.185 -0.592,1.777 -1.777,1.777l-12.241,0c-1.185,0 -1.777,-0.592 -1.777,-1.777l0,-75.42Zm-2.172,-20.731c0,-2.764 1.02,-5.166 3.061,-7.207c2.04,-2.04 4.376,-3.06 7.009,-3.06c2.895,0 5.363,1.02 7.403,3.06c2.041,2.041 3.061,4.443 3.061,7.207c-0,2.764 -1.02,5.133 -3.061,7.108c-2.04,1.974 -4.508,2.961 -7.403,2.961c-2.633,0 -4.969,-0.987 -7.009,-2.961c-2.041,-1.975 -3.061,-4.344 -3.061,-7.108Z" style="fill:#34312f;fill-rule:nonzero;"/><path d="M902.87,292.427c-3.554,2.238 -7.536,3.883 -11.945,4.936c-4.409,1.053 -8.72,1.58 -12.932,1.58c-5.528,-0 -10.76,-1.086 -15.696,-3.258c-4.936,-2.172 -9.247,-5.101 -12.932,-8.786c-3.686,-3.686 -6.615,-7.996 -8.786,-12.932c-2.172,-4.936 -3.258,-10.234 -3.258,-15.894c-0,-5.528 1.086,-10.694 3.258,-15.499c2.171,-4.804 5.1,-9.049 8.786,-12.734c3.685,-3.686 8.029,-6.581 13.03,-8.687c5.002,-2.106 10.267,-3.159 15.795,-3.159c4.607,-0 9.148,0.756 13.623,2.27c4.476,1.514 8.49,3.718 12.044,6.614c0.395,0.395 0.592,0.724 0.592,0.987c0,0.264 -0.032,0.494 -0.098,0.691c-0.066,0.198 -0.165,0.428 -0.296,0.691l-5.529,7.108c-0.526,0.527 -1.053,0.79 -1.579,0.79c-0.395,-0 -0.658,-0.066 -0.79,-0.198c-0.132,0 -0.263,-0.065 -0.395,-0.197c-2.501,-1.448 -5.495,-2.534 -8.983,-3.258c-3.488,-0.724 -6.417,-1.086 -8.786,-1.086c-3.422,0 -6.614,0.593 -9.576,1.777c-2.961,1.185 -5.594,2.896 -7.897,5.134c-2.304,2.237 -4.114,4.969 -5.43,8.193c-1.316,3.225 -1.974,6.812 -1.974,10.761c-0,3.948 0.658,7.634 1.974,11.056c1.316,3.422 3.093,6.351 5.331,8.786c2.238,2.435 4.837,4.344 7.799,5.726c2.961,1.382 6.153,2.073 9.575,2.073c3.028,-0 6.154,-0.263 9.379,-0.79c3.225,-0.526 6.022,-1.382 8.391,-2.567c0.395,-0.395 0.79,-0.592 1.184,-0.592c0.659,0 1.317,0.263 1.975,0.79l4.343,6.91c0.395,0.658 0.593,1.119 0.593,1.382c-0,0.527 -0.264,0.987 -0.79,1.382Z" style="fill:#34312f;fill-rule:nonzero;"/><path d="M967.432,234.578c-2.896,-0.658 -5.956,-1.184 -9.181,-1.579c-3.225,-0.395 -6.351,-0.593 -9.378,-0.593c-3.159,0 -5.627,0.231 -7.404,0.691c-1.777,0.461 -3.126,1.086 -4.048,1.876c-0.921,0.79 -1.513,1.678 -1.777,2.666c-0.263,0.987 -0.394,2.007 -0.394,3.06c-0,2.106 1.085,3.85 3.257,5.232c2.172,1.382 4.903,2.698 8.194,3.949c3.29,1.25 6.811,2.533 10.563,3.85c3.751,1.316 7.272,2.928 10.563,4.837c3.29,1.908 6.021,4.212 8.193,6.91c2.172,2.698 3.258,6.022 3.258,9.971c-0,4.475 -0.954,8.226 -2.863,11.254c-1.908,3.027 -4.409,5.429 -7.503,7.206c-3.093,1.777 -6.515,3.06 -10.266,3.85c-3.752,0.79 -7.47,1.185 -11.155,1.185c-4.607,-0 -9.115,-0.395 -13.525,-1.185c-4.409,-0.79 -8.917,-2.369 -13.524,-4.739c-0.79,-0.263 -1.185,-0.723 -1.185,-1.382c0,-0.263 0.066,-0.526 0.198,-0.789l2.171,-8.688c0.395,-0.526 0.724,-0.822 0.988,-0.888c0.263,-0.066 0.658,-0.099 1.184,-0.099c2.764,1.053 6.187,2.106 10.267,3.159c4.08,1.053 8.49,1.58 13.228,1.58c1.185,-0 2.666,-0.066 4.442,-0.198c1.777,-0.131 3.521,-0.493 5.233,-1.086c1.711,-0.592 3.159,-1.415 4.343,-2.468c1.185,-1.053 1.777,-2.566 1.777,-4.541c0,-2.764 -1.086,-4.935 -3.258,-6.515c-2.171,-1.579 -4.87,-2.962 -8.095,-4.146c-3.224,-1.185 -6.745,-2.336 -10.562,-3.455c-3.817,-1.119 -7.338,-2.633 -10.563,-4.541c-3.225,-1.909 -5.923,-4.377 -8.095,-7.404c-2.172,-3.028 -3.258,-6.976 -3.258,-11.846c0,-3.686 0.79,-6.878 2.369,-9.576c1.58,-2.698 3.752,-4.936 6.516,-6.713c2.764,-1.777 5.989,-3.126 9.674,-4.047c3.686,-0.922 7.7,-1.382 12.044,-1.382c3.949,-0 7.799,0.362 11.55,1.085c3.751,0.724 6.943,1.481 9.576,2.271c0.789,0.526 1.184,1.316 1.184,2.369l-2.764,9.477c-0.132,0.263 -0.362,0.56 -0.691,0.889c-0.329,0.329 -0.757,0.493 -1.283,0.493Z" style="fill:#34312f;fill-rule:nonzero;"/></g></svg>