<?xml version="1.0" encoding="UTF-8" standalone="no"?><!DOCTYPE svg PUBLIC "-//W3C//DTD SVG 1.1//EN" "http://www.w3.org/Graphics/SVG/1.1/DTD/svg11.dtd"><svg width="100%" height="100%" viewBox="0 0 3937 3150" version="1.1" xmlns="http://www.w3.org/2000/svg" xmlnsXlink="http://www.w3.org/1999/xlink" xmlSpace="preserve" xmlnsSerif="http://www.serif.com/" style="fill-rule:evenodd;clip-rule:evenodd;stroke-linecap:square;stroke-linejoin:round;stroke-miterlimit:10;"><g id="ink_ext_XXXXXX"><g id="g10"><path id="path12" d="M2032.64,909.128c-0,-46.672 -37.833,-84.511 -84.506,-84.511l-1743.67,-0c-46.673,-0 -84.512,37.839 -84.512,84.511l-0,2016.61c-0,46.673 37.839,84.505 84.512,84.505l1743.67,0c46.673,0 84.506,-37.832 84.506,-84.505l-0,-2016.61" style="fill:#d4d4d4;"/><path id="path14" d="M3816.05,211.828c-0,-19.211 -7.633,-37.645 -21.222,-51.228c-13.589,-13.589 -32.017,-21.222 -51.234,-21.222l-3551.19,-0c-19.216,-0 -37.643,7.633 -51.232,21.222c-13.59,13.583 -21.222,32.017 -21.222,51.228l-0,392.722c-0,19.211 7.632,37.645 21.222,51.228c13.589,13.589 32.016,21.222 51.232,21.222l3551.19,0c19.217,0 37.645,-7.633 51.234,-21.222c13.589,-13.583 21.222,-32.017 21.222,-51.228l-0,-392.722" style="fill:#ffc689;"/><path id="path16" d="M3816.05,894.095c-0,-40.017 -32.439,-72.456 -72.456,-72.456l-1515.44,-0c-40.016,-0 -72.455,32.439 -72.455,72.456l-0,50.733c-0,40.011 32.439,72.45 72.455,72.45l1515.44,-0c40.017,-0 72.456,-32.439 72.456,-72.45l-0,-50.733" style="fill:#d4d4d4;"/><path id="path18" d="M3816.05,1393c-0,-40.017 -32.439,-72.456 -72.456,-72.456l-1515.44,-0c-40.016,-0 -72.455,32.439 -72.455,72.456l-0,50.733c-0,40.016 32.439,72.45 72.455,72.45l1515.44,-0c40.017,-0 72.456,-32.434 72.456,-72.45l-0,-50.733" style="fill:#d4d4d4;"/><path id="path20" d="M3816.05,1148.19c-0,-40.017 -32.439,-72.456 -72.456,-72.456l-1515.44,-0c-40.016,-0 -72.455,32.439 -72.455,72.456l-0,50.733c-0,40.017 32.439,72.45 72.455,72.45l1515.44,-0c40.017,-0 72.456,-32.433 72.456,-72.45l-0,-50.733" style="fill:#d4d4d4;"/><path id="path22" d="M3816.05,1647.09c-0,-40.016 -32.439,-72.455 -72.456,-72.455l-1515.44,-0c-40.016,-0 -72.455,32.439 -72.455,72.455l-0,50.734c-0,40.016 32.439,72.455 72.455,72.455l1515.44,0c40.017,0 72.456,-32.439 72.456,-72.455l-0,-50.734" style="fill:#d4d4d4;"/><path id="path24" d="M3816.05,1989.88c-0,-19.216 -7.633,-37.644 -21.222,-51.233c-13.589,-13.589 -32.017,-21.222 -51.234,-21.222l-1515.44,-0c-19.216,-0 -37.644,7.633 -51.233,21.222c-13.589,13.589 -21.222,32.017 -21.222,51.233l-0,947.901c-0,19.217 7.633,37.643 21.222,51.233c13.589,13.589 32.017,21.221 51.233,21.221l1515.44,0c19.217,0 37.645,-7.632 51.234,-21.221c13.589,-13.59 21.222,-32.016 21.222,-51.233l-0,-947.901" style="fill:#d4d4d4;"/><path id="path26" d="M555.395,2288.42c2.588,-7.784 5.905,-28.9 11.649,-22.3c102.667,117.933 618.206,138.383 741.878,-14.473c11.484,-14.188 22.445,26.745 27.167,42.178c31.094,101.584 93.739,237.428 81.039,343.689c-29.695,248.5 -420.411,213.962 -597.189,202.057c-57.972,-3.902 -117.183,-7.079 -172.439,-26.374c-72.55,-25.332 -152.016,-70.566 -180.271,-146.382c-32.685,-87.69 59.227,-291.318 88.166,-378.395" style="fill:#ff9a2e;"/><path id="path28" d="M942.75,2130.31c203.994,0 369.606,54.783 369.606,122.261c-0,67.478 -165.612,122.261 -369.606,122.261c-203.989,0 -369.606,-54.783 -369.606,-122.261c0,-67.478 165.617,-122.261 369.606,-122.261" style="fill:#ffc689;"/><path id="path30" d="M771.228,1413.17c0.833,-41.422 4.089,-85.289 4.616,-128.566c0.345,-27.984 -0.433,-55.706 -3.905,-82.261c-2.333,-17.784 -23.439,-48.506 -29.756,-65.189c-2.566,-6.773 -3.644,-12.534 -3.6,-16.695c0.178,-17.689 12.623,-36.05 39.417,-48.533c36.072,-16.811 101.894,-26.789 167.917,-27.495c65.766,-0.7 131.511,7.667 167.944,25.289c22.461,10.861 35.256,25.867 37.883,42.289c1.3,8.15 0.112,18.156 -3.411,29.089c-7.355,22.833 -26.855,52.072 -28.472,72.261c-2.167,27.761 -3.072,55.539 -3.305,83.328c-0.356,42.194 0.8,84.411 1.355,126.617c0.361,22.833 -1.561,46.227 -0.822,69.288c0.294,9.156 1.017,18.262 2.578,27.239c4.033,23.184 9.966,46.345 16.966,69.411c16.634,54.817 38.95,109.167 55.145,162.673l161.922,536.516c18.594,60.256 48.244,132.534 66.844,203.589c13.45,51.367 21.073,102.161 15.75,147.778c-13.061,111.94 -92.788,172.112 -196.488,202.129c-136.856,39.609 -316.223,25.599 -421.289,18.815c-35.406,-2.283 -71.256,-4.345 -106.434,-9.794c-24.344,-3.772 -48.366,-9.173 -71.739,-17.261c-46,-15.912 -94.522,-39.573 -132.648,-73c-26.952,-23.635 -48.729,-52.139 -61.492,-86.045c-12.083,-32.105 -10.16,-78.333 0.406,-129.311c19.458,-93.9 66.962,-205.527 86.318,-264.383c16.434,-49.983 32.25,-100.161 47.722,-150.444c36.222,-117.667 70.611,-235.9 106.844,-353.562c21.967,-71.388 47.806,-144.138 65.012,-218.188c11.144,-47.967 18.622,-96.489 18.722,-145.545l-0,-0.039Zm14.289,-292.377c1.011,2.288 2.583,5.766 3.944,8.388c6.867,13.212 16.75,29.828 22.989,44.15c3.55,8.15 5.933,15.817 6.922,22.25c4.434,28.684 6.011,58.689 6.395,89.012c0.544,43.377 -1.5,87.416 -1.245,128.938c-0.472,53.034 -8.755,105.45 -21.15,157.223c-17.989,75.122 -44.639,148.888 -67.45,221.272c-36.983,117.422 -72.128,235.422 -109.094,352.855c-15.889,50.473 -32.111,100.834 -48.961,151.006c-16.823,50.083 -54.818,138.944 -77.529,221.85c-15.139,55.278 -24.533,107.528 -12.094,141.238c12.533,33.956 36.823,60.895 65.834,82.383c30.578,22.65 66.405,39.295 100.578,51.339c20.877,7.35 42.361,12.25 64.133,15.744c33.889,5.445 68.455,7.557 102.578,9.946c101.533,7.123 274.877,22.505 407.383,-15.056c87.889,-24.911 157.639,-73.455 169.211,-168.11c5.045,-41.24 -2.094,-87.184 -14.022,-133.717c-18.1,-70.6 -47.283,-142.417 -65.456,-202.295l-160.116,-537.217c-16.084,-53.511 -38.145,-107.922 -54.811,-162.7c-7.428,-24.416 -13.839,-48.905 -18.189,-73.438c-1.878,-10.573 -2.806,-21.295 -3.189,-32.084c-0.828,-23.244 1.005,-46.833 0.561,-69.855c-0.928,-42.456 -2.433,-84.917 -2.461,-127.372c-0.017,-28.634 0.644,-57.262 2.605,-85.889c0.495,-7.467 2.639,-15.95 5.839,-24.917c5.239,-14.689 13.561,-31.083 19.522,-45.994c3.317,-8.289 6.506,-15.673 5.512,-21.384c-0.517,-2.966 -3.139,-5.022 -6.15,-7.283c-6.556,-4.922 -15.823,-8.789 -26.85,-12.133c-34.35,-10.412 -84.267,-14.184 -134.006,-12.723c-49.794,1.461 -99.456,8.317 -133.211,19.839c-9.017,3.078 -16.745,6.489 -22.733,10.295c-1.85,1.177 -3.95,3.116 -5.289,4.439" style="fill:#fff;"/><path id="path32" d="M826.828,1738.23c-18.139,92.722 -40.989,184.211 -66.895,275.133c-9.694,34.033 -19.861,67.911 -30.333,101.728c-10.456,33.755 -21.094,67.455 -32.083,101.039c-8.789,26.839 -17.823,53.589 -26.878,80.322c-13.595,40.111 -27.495,80.056 -40.433,120.344c-15.473,46.489 -43.034,103.439 -53.095,159.128c-6.822,37.789 -5.561,74.879 13.556,107.795c-22.284,-32.044 -26.667,-69.911 -22.623,-109.078c5.862,-56.739 29.756,-115.933 42.023,-163.772c10.994,-41.056 22.305,-82.017 34.639,-122.734c8.2,-27.089 16.655,-54.105 25.633,-80.955c20.911,-62.55 43.111,-124.65 64.922,-186.861c32.767,-93.456 65.461,-186.634 91.567,-282.089" style="fill:#fff;"/><path id="path34" d="M945.006,1068.5c105.388,0 190.955,18.278 190.955,40.789c0,22.511 -85.567,40.789 -190.955,40.789c-105.395,-0 -190.956,-18.278 -190.956,-40.789c-0,-22.511 85.561,-40.789 190.956,-40.789Z" style="fill:none;fill-rule:nonzero;stroke:#fff;stroke-width:53.29px;"/><path id="path36" d="M1633.75,1269.56c-0,-12.856 -10.422,-23.284 -23.278,-23.284l-265.589,0c-6.177,0 -12.094,2.456 -16.461,6.823c-4.366,4.366 -6.822,10.288 -6.822,16.461l-0,37.733c-0,5.511 -2.411,10.744 -6.6,14.322c-31.85,27.211 -168.917,144.328 -188.417,160.995c-0.583,0.494 -0.922,1.222 -0.927,1.983c-0.006,0.767 0.316,1.5 0.894,2.005c0.078,0.073 0.161,0.145 0.239,0.217c0.839,0.739 2.089,0.761 2.95,0.045c16.367,-13.595 162.139,-134.684 191.744,-159.278c3.384,-2.806 7.645,-4.345 12.039,-4.345l276.95,0c12.856,0 23.278,-10.422 23.278,-23.283l-0,-30.394" style="fill:#fff;"/><path id="path38" d="M1691.97,2048.17c-0,-12.855 -10.423,-23.278 -23.284,-23.278l-265.589,0c-6.172,0 -12.094,2.45 -16.461,6.817c-4.366,4.367 -6.816,10.289 -6.816,16.461l-0,32.456c-0,8.294 -5.428,15.611 -13.361,18.022c-39.973,12.139 -157.306,47.783 -180.867,54.939c-0.839,0.255 -1.478,0.944 -1.661,1.8c-0.189,0.861 0.1,1.75 0.761,2.333c0.428,0.384 0.728,0.645 0.728,0.645c-0,-0 173.922,-49.267 197,-55.8c1.672,-0.478 3.394,-0.717 5.133,-0.717l281.133,0c12.861,0 23.284,-10.422 23.284,-23.278l-0,-30.4" style="fill:#ffc689;"/><path id="path40" d="M1818.44,2739.43c0,12.856 -10.427,23.277 -23.283,23.277l-265.589,0c-6.172,0 -12.094,-2.448 -16.461,-6.816c-4.367,-4.367 -6.817,-10.289 -6.817,-16.461l0,-38.539c0,-5.04 -2.022,-9.872 -5.611,-13.41c-22.55,-22.25 -106.105,-104.684 -120.189,-118.584c-0.522,-0.517 -0.811,-1.228 -0.788,-1.961c0.016,-0.733 0.344,-1.428 0.894,-1.917c0.006,-0.005 0.017,-0.016 0.022,-0.022c1.034,-0.911 2.589,-0.883 3.589,0.061c13.4,12.717 99.15,94.083 121.75,115.522c3.5,3.323 8.139,5.172 12.961,5.172l276.239,0c12.856,0 23.283,10.423 23.283,23.279l0,30.399" style="fill:#ff9a2e;"/></g></g></svg>