<?xml version="1.0" encoding="UTF-8" standalone="no"?><!DOCTYPE svg PUBLIC "-//W3C//DTD SVG 1.1//EN" "http://www.w3.org/Graphics/SVG/1.1/DTD/svg11.dtd"><svg width="100%" height="100%" viewBox="0 0 1182 1182" version="1.1" style="fill-rule:evenodd;clip-rule:evenodd;stroke-linejoin:round;stroke-miterlimit:2;"><g id="Image4"><path d="M1014.39,193.977l0,793.148c0,29.179 -23.654,52.833 -52.833,52.833l-742.012,0c-29.179,0 -52.833,-23.654 -52.833,-52.833l-0,-793.148c-0,-29.179 23.654,-52.833 52.833,-52.833l742.012,0c29.179,0 52.833,23.654 52.833,52.833Zm-33.333,0c0,-5.384 -2.182,-10.259 -5.711,-13.788c-3.529,-3.529 -8.404,-5.711 -13.789,-5.711l-742.012,-0c-5.385,-0 -10.26,2.182 -13.788,5.711c-3.529,3.529 -5.712,8.404 -5.712,13.788l0,793.148c0,5.385 2.183,10.26 5.712,13.789c3.528,3.528 8.403,5.711 13.788,5.711l742.013,-0c5.384,-0 10.259,-2.183 13.788,-5.711c3.529,-3.529 5.711,-8.404 5.711,-13.789l0,-793.148Z" style="fill:#535353;"/><g><g><path d="M266.645,654.516l2.721,-176.821c53.323,21.143 89.776,36.433 128.029,55.335c19.955,9.86 36.279,16.984 52.922,25.937c26.094,14.037 46.395,26.459 65.012,40.94c13.783,10.72 25.823,21.223 36.873,32.885c11.14,11.756 21.304,24.061 30.635,38.064c12.694,19.05 23.298,40.448 34.262,65.553c20.439,46.799 39.151,101.747 61.003,174.286l-98.97,9.997c6.608,-72.214 13.286,-127.9 8.489,-176.546c-2.053,-20.823 -5.756,-39.338 -12.24,-56.046c-7.213,-18.588 -16.93,-35.052 -30.498,-47.952c-10.059,-9.564 -22.31,-16.851 -36.197,-22.425c-12.591,-5.054 -26.122,-7.681 -41.619,-9.228c-18.01,-1.799 -35.801,-0.527 -57.521,2.49c-43.477,6.04 -83.189,22.566 -142.901,43.531Z" style="fill:#ffdf89;"/><path d="M279.076,486.287l74.639,-142.521c51.619,54.112 80.35,98.986 125.377,131.835c12.573,9.172 24.943,16.514 39.291,21.426c20.534,7.03 42.842,10.949 66.92,6.995c13.248,-2.175 26.735,-7.169 40.211,-14.659c25.954,-14.428 48.948,-35.919 75.431,-67.028c28.955,-34.014 47.619,-72.123 78.569,-126.218l115.818,141.554c-55.076,17.917 -93.197,29.105 -135.651,39.854c-34.928,8.843 -61.455,15.704 -89.018,21.383c-27.323,5.629 -50.224,8.751 -72.125,12.262c-26.122,4.187 -48.89,7.586 -71.748,8.14c-34.166,0.829 -64.479,-3.917 -100.671,-9.978c-46.073,-7.716 -88.08,-14.623 -147.043,-23.045Z" style="fill:#ffdf89;"/></g></g><g><g><path d="M872.057,767.543l-63.356,65.103c-43.616,-57.45 -81.6,-108.54 -120.013,-156.758c-14.046,-17.631 -27.794,-34.253 -41.736,-50.625c-14.47,-16.991 -28.589,-33.403 -43.092,-49.162c-11.941,-12.975 -23.865,-25.621 -36.235,-37.523c-19.224,-18.496 -38.813,-35.546 -58.251,-52.767c-20.095,-17.803 -39.709,-34.738 -59.796,-52.256c-30.535,-26.631 -59.799,-52.139 -89.863,-81.059l64.925,-47.657c24.325,48.038 47.275,92.476 76.463,135.932c19.267,28.686 39.878,56.143 62.93,83.162c8.376,9.817 17.331,19.268 26.62,28.565c9.114,9.12 18.647,17.973 28.539,26.681c19.194,16.896 39.305,33.186 60.463,49.85c18.196,14.331 36.731,28.318 56.478,42.689c42.494,30.923 86.997,61.046 135.924,95.825Z" style="fill:#ffc689;"/><path d="M938.052,604.153l-69.778,165.126c-39.889,-40.73 -65.423,-69.558 -95.649,-102.907c-22.875,-25.239 -41.863,-44.585 -60.728,-65.655c-13.712,-15.316 -25.837,-29.266 -38.337,-42.524c-20.814,-22.078 -39.877,-41.862 -55.802,-64.146c-18.765,-26.259 -33.702,-53.341 -47.477,-85.184c-17.702,-40.92 -31.369,-84.925 -45.5,-140.188l102.79,-4.973c-9.833,66.282 -17.875,118.391 -9.093,167.621c6.652,37.283 19.463,71.766 44.942,101.354c11.719,13.61 26.406,25.821 43.876,35.83c23.384,13.398 49.314,21.973 81.405,28.645c45.725,9.507 87.64,6.226 149.351,7.001Z" style="fill:#ffc689;"/><path d="M823.359,837.044l-112.527,65.778c-9.673,-45.919 -15.021,-81.651 -27.803,-116.823c-6.214,-17.098 -12.611,-31.568 -20.829,-45.097c-12.681,-20.878 -26.255,-37.815 -42.397,-48.858c-12.31,-8.422 -25.972,-13.412 -39.691,-14.214c-20.095,-1.175 -39.09,7.307 -58.815,22.292c-15.625,11.87 -26.811,28.384 -41.113,50.479c-21.573,33.328 -32.819,71.37 -52.971,126.78l-143.949,-122.402c48.997,-27.023 82.601,-45.565 120.378,-60.92c34.121,-13.868 58.805,-24.253 85.206,-29.974c37.665,-8.162 65.491,-8.312 93.63,0.25c14.602,4.444 28.599,10.255 43.165,18.147c18.662,10.112 37.388,22.836 58.218,39.236c13.417,10.564 26.2,21.619 41.532,33.871c31.017,24.786 60.551,48.609 97.966,81.455Z" style="fill:#ffc689;"/></g></g><g><g><path d="M473.539,893.553l-50.409,-22.989c20.635,-30.576 37.435,-58.452 46.228,-85.792c6.789,-21.113 9.426,-40.517 6.762,-57.152c-2.162,-13.496 -7.568,-25.316 -16.787,-33.546c-8.598,-7.676 -20.467,-12.547 -34.863,-12.98c-16.166,-0.486 -33.636,5.173 -54.984,15.938c-25.412,12.816 -46.221,33.335 -77.714,61.83l-44.141,-106.265c33.312,-1.29 57.039,-1.918 82.604,-0.312c21.296,1.338 37.592,2.085 53.965,4.766c21.126,3.461 37.004,7.576 50.976,13.866c11.556,5.202 20.885,10.971 28.668,18.39c18.54,17.672 26.207,43.682 27.171,78.084c1.004,35.786 -4.216,78.127 -17.476,126.162Z" style="fill:#ff6060;"/><path d="M581.677,917.812l-113.193,-20.684c18.078,-44.828 34.764,-92.259 45.269,-147.058c5.882,-30.687 10.24,-61.438 12.379,-93.8c1.385,-20.958 1.976,-41.921 0.992,-63.095c-0.779,-16.776 -2.223,-33.605 -5.219,-50.109c-4.581,-25.235 -11.708,-49.37 -19.744,-73.288c-10.533,-31.347 -23.004,-59.498 -36.665,-87.882c-14.694,-30.533 -30.655,-55.729 -46.754,-82.14l107.653,-33.25c3.339,50.938 2.124,102.09 2.21,159.906c0.05,34.028 0.006,67.801 1.841,102.824c1.058,20.199 3.235,40.423 6.054,60.51c4.308,30.696 10.31,60.571 15.406,90.636c4.003,23.616 7.91,46.081 11.819,69.006c10.328,60.56 16.795,115.255 17.952,168.424Z" style="fill:#ff6060;"/></g></g><g><g><path d="M659.522,273.035l117.886,34.441c-21.929,30.82 -52.88,59.829 -63.893,99.551c-6.714,24.216 -7.407,50.11 9.163,68.829c7.403,8.363 18.613,14.663 32.263,17.228c17.226,3.237 33.959,-1.161 57.201,-9.297c31.381,-10.983 47.08,-30.447 86.657,-59.211l17.487,184.495c-36.558,-18.087 -55,-25.058 -81.987,-41.32c-20.83,-12.551 -34.392,-18.534 -50.468,-29.183c-18.541,-12.283 -31.491,-21.164 -44.426,-31.758c-9.727,-7.966 -18.502,-14.68 -25.943,-22.256c-10.798,-10.993 -18.81,-22.39 -25.337,-35.421c-6.768,-13.511 -10.548,-27.284 -14.502,-42.851c-5.712,-22.494 -6.919,-43.612 -9.241,-67.768c-2.342,-24.362 -3.25,-44.061 -4.86,-65.479Z" style="fill:#ff8b5a;"/><path d="M627.18,261.487l34.245,7.816c-15.415,52.774 -28.32,115.937 -33.69,187.807c-1.55,20.739 -2.415,42.115 -2.469,64.155c-0.05,20.905 0.515,42.347 2.096,64.264c1.213,16.806 2.909,33.899 5.43,51.175c3.627,24.857 8.702,50.087 14.873,75.709c7.326,30.416 16.436,61.111 27.157,92.328c10.162,29.586 22.082,59.071 35.216,89.181l-33.182,11.522c-10.33,-39.07 -18.225,-77.185 -25.152,-114.643c-7.312,-39.545 -12.903,-77.902 -17.412,-115.256c-2.525,-20.914 -4.683,-41.435 -6.87,-61.551c-3.466,-31.87 -6.577,-62.69 -8.566,-92.519c-2.414,-36.187 -3.684,-70.702 -3.555,-103.578c0.23,-58.273 4.384,-110.748 11.879,-156.41Z" style="fill:#ff8b5a;"/></g></g></g><g><path d="M857.346,768.812l27.693,18.553c-19.917,29.73 -44.216,56.282 -71.97,78.728c-27.591,22.314 -58.595,40.57 -92.101,53.861l-12.291,-30.985c30.353,-12.04 58.437,-28.58 83.431,-48.794c25.158,-20.346 47.184,-44.414 65.238,-71.363Z" style="fill:#ffc689;"/><path d="M708.677,888.969l12.291,30.985c-20.484,8.125 -41.903,14.394 -64.049,18.6c-21.5,4.083 -43.686,6.221 -66.368,6.221c-32.636,0 -64.246,-4.426 -94.265,-12.705c-31.066,-8.568 -60.428,-21.264 -87.456,-37.461l17.135,-28.593c24.472,14.666 51.056,26.162 79.184,33.92c27.196,7.501 55.835,11.506 85.402,11.506c20.556,-0 40.663,-1.936 60.149,-5.636c20.047,-3.807 39.435,-9.482 57.977,-16.837Z" style="fill:#ff6060;"/><path d="M425.965,866.016l-17.135,28.593c-52.448,-31.431 -96.105,-76.047 -126.376,-129.254c-29.352,-51.591 -46.127,-111.254 -46.127,-174.804c0,-63.832 16.924,-123.741 46.518,-175.489c30.516,-53.361 74.515,-98.039 127.341,-129.377l17.007,28.669c-47.877,28.402 -87.755,68.894 -115.412,117.256c-26.803,46.867 -42.12,101.13 -42.12,158.941c-0,57.557 15.182,111.596 41.766,158.321c27.435,48.222 67.003,88.658 114.538,117.144Z" style="fill:#ffdf89;"/><path d="M427.193,314.354l-17.007,-28.669c26.874,-15.942 56.033,-28.433 86.862,-36.862c29.791,-8.144 61.143,-12.496 93.503,-12.496c35.457,0 69.704,5.224 102.014,14.939c33.46,10.06 64.844,24.937 93.342,43.826l-18.416,27.784c-25.806,-17.105 -54.224,-30.579 -84.524,-39.689c-29.27,-8.8 -60.295,-13.526 -92.416,-13.526c-29.317,-0 -57.722,3.937 -84.713,11.316c-27.913,7.631 -54.313,18.942 -78.645,33.377Z" style="fill:#ff8b5a;"/><path d="M767.491,322.876l18.416,-27.784c48.623,32.227 88.843,76.135 116.648,127.707c26.928,49.946 42.22,107.077 42.22,167.752c0,35.764 -5.315,70.297 -15.192,102.852c-10.229,33.718 -25.352,65.315 -44.544,93.962l-27.693,-18.553c17.379,-25.941 31.077,-54.553 40.34,-85.086c8.947,-29.492 13.756,-60.776 13.756,-93.175c-0,-54.952 -13.839,-106.698 -38.228,-151.933c-25.2,-46.741 -61.655,-86.533 -105.723,-115.742Z" style="fill:#ffc689;"/></g></svg>