<?xml version="1.0" encoding="UTF-8" standalone="no"?>
<!DOCTYPE svg PUBLIC "-//W3C//DTD SVG 1.1//EN" "http://www.w3.org/Graphics/SVG/1.1/DTD/svg11.dtd">
<svg width="100%" height="100%" viewBox="0 0 1182 1182" version="1.1" style="fill-rule:evenodd;clip-rule:evenodd;stroke-linejoin:round;stroke-miterlimit:2;">
    <g transform="matrix(0.716555,0,0,0.783389,51.1073,261.204)">
        <g transform="matrix(0.501304,0,0,0.501304,269.257,-304.064)">
            <path d="M317.074,1881.82C319.015,1875.98 321.502,1860.14 325.812,1865.09C402.809,1953.54 789.465,1968.88 882.219,1854.24C890.83,1843.59 899.051,1874.29 902.594,1885.87C925.914,1962.06 972.896,2063.94 963.373,2143.64C941.103,2330.01 648.065,2304.11 515.482,2295.18C472.001,2292.25 427.594,2289.87 386.152,2275.4C331.738,2256.4 272.138,2222.47 250.945,2165.61C226.434,2099.85 295.369,1947.12 317.074,1881.82Z" style="fill:rgb(255,172,137);"/>
        </g>
        <g transform="matrix(0.501304,0,0,0.501304,269.257,-304.064)">
            <path d="M272.682,1869.47C274.937,1862.69 279.321,1848.3 283.185,1842.72C291.408,1830.86 302.423,1825.54 311.714,1823.23C326.438,1819.57 345.221,1819.25 362.109,1838.65C372.79,1850.92 392.663,1859.9 416.838,1867.95C467.96,1884.97 537.151,1893.77 606.342,1893.38C663.725,1893.06 721.189,1886.4 768.331,1871.91C801.31,1861.78 829.137,1848.5 844.923,1828.99C858.292,1812.47 874.04,1809.32 887.088,1809.6C899.097,1809.87 912.546,1813.86 924.018,1825.57C932.931,1834.66 943.34,1861.58 947.274,1874.43C963.689,1928.06 991.382,1994.21 1003.94,2056.76C1010.33,2088.62 1012.91,2119.68 1009.5,2148.25C998.214,2242.67 932.93,2294.76 846.371,2321.12C738.88,2353.85 595.483,2343.12 512.075,2337.5C484.453,2335.64 456.486,2333.91 429.049,2329.57C408.868,2326.38 388.969,2321.81 369.605,2315.05C330.949,2301.55 290.292,2281.26 258.576,2252.79C235.952,2232.49 217.768,2208.12 207.029,2179.3C196.935,2152.22 197.584,2113.32 206.574,2070.42C221.522,1999.09 257.819,1914.19 272.682,1869.47ZM347.529,1932.69C333.803,1969.28 316.024,2015.75 304.111,2059.91C294.376,2095.99 286.675,2129.95 294.861,2151.92C302.409,2172.17 317.096,2188.13 334.351,2201.02C355.025,2216.48 379.477,2227.64 402.698,2235.75C416.423,2240.54 430.56,2243.67 444.864,2245.93C469.32,2249.8 494.266,2251.2 518.888,2252.85C593.252,2257.86 721.226,2269.77 817.06,2240.59C868.913,2224.8 910.491,2195.59 917.25,2139.03C920.6,2110.99 915.316,2079.82 907.152,2048.22C896.101,2005.44 879.537,1962.06 866.38,1923.34C855.135,1929.85 842.881,1935.78 829.728,1941.11C769.1,1965.68 688.032,1977.8 606.916,1978.26C525.884,1978.72 444.976,1967.64 385.104,1947.71C371.542,1943.19 358.978,1938.15 347.529,1932.69Z" style="fill:rgb(83,83,83);"/>
        </g>
        <g transform="matrix(0.54618,0,0,0.485922,120.699,-181.411)">
            <ellipse cx="829.662" cy="1661.24" rx="254.429" ry="94.597" style="fill:rgb(255,215,137);"/>
            <path d="M829.662,1522.86C915.982,1522.86 993.012,1538.26 1043.79,1561.31C1099.87,1586.77 1126.68,1625.79 1126.68,1661.24C1126.68,1696.68 1099.87,1735.7 1043.79,1761.17C993.012,1784.22 915.982,1799.62 829.662,1799.62C743.343,1799.62 666.313,1784.22 615.534,1761.17C559.452,1735.7 532.648,1696.68 532.648,1661.24C532.648,1625.79 559.452,1586.77 615.534,1561.31C666.313,1538.26 743.343,1522.86 829.662,1522.86ZM619.911,1661.24C622.547,1663.93 626.81,1668.05 630.529,1670.52C646.79,1681.34 669.863,1690.16 697.358,1697.09C735.117,1706.6 780.663,1712.05 829.662,1712.05C878.661,1712.05 924.208,1706.6 961.967,1697.09C989.462,1690.16 1012.53,1681.34 1028.8,1670.52C1032.52,1668.05 1036.78,1663.93 1039.41,1661.24C1036.78,1658.54 1032.52,1654.43 1028.8,1651.96C1012.53,1641.13 989.462,1632.31 961.967,1625.39C924.208,1615.88 878.661,1610.42 829.662,1610.42C780.663,1610.42 735.117,1615.88 697.358,1625.39C669.863,1632.31 646.79,1641.13 630.529,1651.96C626.81,1654.43 622.547,1658.54 619.911,1661.24Z" style="fill:rgb(83,83,83);"/>
        </g>
        <g transform="matrix(0.54618,0,0,0.485922,120.699,-181.411)">
            <path d="M829.662,1522.86C915.982,1522.86 993.012,1538.26 1043.79,1561.31C1099.87,1586.77 1126.68,1625.79 1126.68,1661.24C1126.68,1696.68 1099.87,1735.7 1043.79,1761.17C993.012,1784.22 915.982,1799.62 829.662,1799.62C743.343,1799.62 666.313,1784.22 615.534,1761.17C559.452,1735.7 532.648,1696.68 532.648,1661.24C532.648,1625.79 559.452,1586.77 615.534,1561.31C666.313,1538.26 743.343,1522.86 829.662,1522.86ZM619.911,1661.24C622.547,1663.93 626.81,1668.05 630.529,1670.52C646.79,1681.34 669.863,1690.16 697.358,1697.09C735.117,1706.6 780.663,1712.05 829.662,1712.05C878.661,1712.05 924.208,1706.6 961.967,1697.09C989.462,1690.16 1012.53,1681.34 1028.8,1670.52C1032.52,1668.05 1036.78,1663.93 1039.41,1661.24C1036.78,1658.54 1032.52,1654.43 1028.8,1651.96C1012.53,1641.13 989.462,1632.31 961.967,1625.39C924.208,1615.88 878.661,1610.42 829.662,1610.42C780.663,1610.42 735.117,1615.88 697.358,1625.39C669.863,1632.31 646.79,1641.13 630.529,1651.96C626.81,1654.43 622.547,1658.54 619.911,1661.24Z" style="fill:rgb(83,83,83);"/>
        </g>
        <g transform="matrix(0.501304,0,0,0.501304,269.257,-304.064)">
            <path d="M452.536,1225.25C452.753,1194.24 454.738,1161.37 454.733,1128.97C454.729,1108.97 453.961,1089.16 451.26,1070.21C450.716,1066.39 447.318,1061.49 444.608,1056.32C438.741,1045.12 432.594,1034 429.579,1026.27C426.364,1018.04 425.324,1010.97 425.319,1005.87C425.3,985.102 437.655,963.017 468.269,947.861C497.963,933.16 553.354,923.196 609.193,922.071C665.57,920.937 721.788,929.018 752.52,944.093C779.016,957.092 792.664,975.809 795.952,995.478C797.502,1004.75 796.639,1016.15 792.736,1028.62C789.579,1038.7 784.145,1050.28 779.047,1061.59C776.434,1067.38 773.183,1072.78 772.849,1077.35C771.366,1097.6 770.817,1117.86 770.737,1138.12C770.613,1169.59 771.612,1201.06 772.162,1232.53C772.423,1247.42 771.429,1262.63 771.509,1277.72C771.55,1285.52 771.886,1293.29 773.225,1300.9C776.088,1317.21 780.335,1333.49 785.262,1349.71C797.761,1390.88 814.435,1431.74 826.557,1471.93L947.274,1874.43C963.689,1928.06 991.382,1994.21 1003.94,2056.76C1010.33,2088.62 1012.91,2119.68 1009.5,2148.25C998.214,2242.67 932.93,2294.76 846.371,2321.12C738.88,2353.85 595.483,2343.12 512.075,2337.5C484.453,2335.64 456.486,2333.91 429.049,2329.57C408.868,2326.38 388.969,2321.81 369.605,2315.05C330.949,2301.55 290.292,2281.26 258.576,2252.79C235.952,2232.49 217.768,2208.12 207.029,2179.3C196.935,2152.22 197.584,2113.32 206.574,2070.42C221.522,1999.09 257.819,1914.19 272.682,1869.47L389.684,1492.24C406.237,1439.09 425.721,1384.94 438.702,1329.79C446.806,1295.37 452.343,1260.54 452.536,1225.31L452.536,1225.25ZM698.797,1016.08C691.388,1013.88 681.632,1011.27 673.652,1010.15C626.987,1003.62 563.579,1005.71 526.716,1017C533.638,1031.27 541.935,1049.81 543.278,1059.24C545.715,1076.34 546.908,1094.02 547.334,1111.95C548.238,1149.96 545.586,1189.15 545.33,1225.78C545.101,1266.87 538.87,1307.51 529.419,1347.66C516.01,1404.62 496.028,1460.6 478.929,1515.49L361.466,1894.16C349.032,1931.57 320.809,1998.02 304.111,2059.91C294.376,2095.99 286.675,2129.95 294.861,2151.92C302.409,2172.17 317.096,2188.13 334.351,2201.02C355.025,2216.48 379.477,2227.64 402.698,2235.75C416.423,2240.54 430.56,2243.67 444.864,2245.93C469.32,2249.8 494.266,2251.2 518.888,2252.85C593.252,2257.86 721.226,2269.77 817.06,2240.59C868.913,2224.8 910.491,2195.59 917.25,2139.03C920.6,2110.99 915.316,2079.82 907.152,2048.22C893.548,1995.55 871.586,1941.98 857.914,1897.31L737.101,1494.5C724.994,1454.35 708.335,1413.54 695.851,1372.42C689.991,1353.13 685.009,1333.76 681.603,1314.37C680.001,1305.24 679.189,1295.99 678.875,1286.68C678.283,1269.12 679.683,1251.29 679.379,1233.89C678.818,1201.87 677.816,1169.84 677.942,1137.82C678.029,1115.76 678.647,1093.71 680.26,1071.67C681.083,1060.43 685.603,1046.51 691.882,1032.31C693.889,1027.77 696.506,1021.57 698.797,1016.08Z" style="fill:rgb(83,83,83);"/>
        </g>
        <g transform="matrix(0.555203,0,0,0.501304,116.88,-234.055)">
            <path d="M824.582,784.787C876.27,784.787 921.649,791.825 947.704,801.404C984.128,814.797 995.789,840.723 995.789,857.818C995.789,874.912 984.128,900.838 947.704,914.231C921.649,923.81 876.27,930.848 824.582,930.848C772.893,930.848 727.514,923.81 701.46,914.231C665.036,900.838 653.375,874.912 653.375,857.818C653.375,840.723 665.036,814.797 701.46,801.404C727.514,791.825 772.893,784.787 824.582,784.787Z" style="fill:rgb(83,83,83);"/>
        </g>
        <g transform="matrix(0.555203,0,0,0.501304,116.88,-234.055)">
            <path d="M824.582,784.787C876.27,784.787 921.649,791.825 947.704,801.404C984.128,814.797 995.789,840.723 995.789,857.818C995.789,874.912 984.128,900.838 947.704,914.231C921.649,923.81 876.27,930.848 824.582,930.848C772.893,930.848 727.514,923.81 701.46,914.231C665.036,900.838 653.375,874.912 653.375,857.818C653.375,840.723 665.036,814.797 701.46,801.404C727.514,791.825 772.893,784.787 824.582,784.787Z" style="fill:rgb(83,83,83);"/>
        </g>
    </g>
    <g id="Layer1">
        <g transform="matrix(1.00729,0,0,1,-6.88862,0)">
            <path d="M944.369,194.8L944.369,987.948C944.369,1001.96 938.843,1015.4 929.006,1025.31C919.17,1035.21 905.829,1040.78 891.918,1040.78L294.686,1040.78C280.775,1040.78 267.434,1035.21 257.598,1025.31C247.762,1015.4 242.236,1001.96 242.236,987.948L242.236,194.8C242.236,180.788 247.762,167.35 257.598,157.442C267.434,147.534 280.775,141.967 294.686,141.967L891.918,141.967C905.829,141.967 919.17,147.534 929.006,157.442C938.843,167.35 944.369,180.788 944.369,194.8ZM911.277,194.8C911.277,192.214 910.767,189.682 909.803,187.338C908.839,184.994 907.422,182.84 905.607,181.012C903.791,179.183 901.653,177.756 899.326,176.785C897,175.814 894.485,175.301 891.918,175.301L294.686,175.301C292.119,175.301 289.605,175.814 287.278,176.785C284.951,177.756 282.813,179.183 280.998,181.012C279.182,182.84 277.765,184.994 276.801,187.338C275.838,189.682 275.328,192.214 275.328,194.8L275.328,987.948C275.328,990.534 275.838,993.067 276.801,995.41C277.765,997.754 279.182,999.908 280.998,1001.74C282.813,1003.57 284.951,1004.99 287.278,1005.96C289.605,1006.93 292.119,1007.45 294.686,1007.45L891.918,1007.45C894.485,1007.45 897,1006.93 899.326,1005.96C901.653,1004.99 903.791,1003.57 905.607,1001.74C907.422,999.908 908.839,997.754 909.803,995.41C910.767,993.067 911.277,990.534 911.277,987.948L911.277,194.8Z" style="fill:rgb(83,83,83);"/>
        </g>
        <g transform="matrix(1.11583,0.000295954,0.000295954,1,-66.4955,-15.5235)">
            <path d="M360.581,301.485L360.666,268.152L817.941,269.32L817.855,302.653L360.581,301.485Z" style="fill:rgb(83,83,83);"/>
        </g>
        <g transform="matrix(-0.00255505,-0.194939,0.999997,-0.000498081,27.1107,277.706)">
            <path d="M290.021,301.305L290.106,267.971L888.5,269.5L888.415,302.834L290.021,301.305Z" style="fill:rgb(83,83,83);"/>
        </g>
        <g transform="matrix(-0.00255505,-0.194939,0.999997,-0.000498081,588.54,277.706)">
            <path d="M290.021,301.305L290.106,267.971L888.5,269.5L888.415,302.834L290.021,301.305Z" style="fill:rgb(83,83,83);"/>
        </g>
        <g transform="matrix(0.41601,-0.00018317,-0.00018317,0.487699,495.57,292.765)">
            <path d="M335.41,318.928L335.584,250.58L843.112,251.877L842.937,320.225L335.41,318.928Z" style="fill:rgb(83,83,83);"/>
        </g>
        <g transform="matrix(0.41601,-0.00018317,-0.00018317,0.487699,495.57,647.058)">
            <path d="M335.41,318.928L335.584,250.58L843.112,251.877L842.937,320.225L335.41,318.928Z" style="fill:rgb(83,83,83);"/>
        </g>
        <g transform="matrix(0.41601,-0.00018317,-0.00018317,0.487699,495.57,427.84)">
            <path d="M335.41,318.928L335.584,250.58L843.112,251.877L842.937,320.225L335.41,318.928Z" style="fill:rgb(83,83,83);"/>
        </g>
        <g transform="matrix(0.41601,-0.00018317,-0.00018317,0.487699,495.57,782.133)">
            <path d="M335.41,318.928L335.584,250.58L843.112,251.877L842.937,320.225L335.41,318.928Z" style="fill:rgb(83,83,83);"/>
        </g>
        <g transform="matrix(0.383155,-0.000267117,-0.000267117,0.487699,507.933,360.352)">
            <path d="M331.974,318.919L332.149,250.571L846.547,251.886L846.373,320.234L331.974,318.919Z" style="fill:rgb(83,83,83);"/>
        </g>
        <g transform="matrix(0.383155,-0.000267117,-0.000267117,0.487699,507.933,714.645)">
            <path d="M331.974,318.919L332.149,250.571L846.547,251.886L846.373,320.234L331.974,318.919Z" style="fill:rgb(83,83,83);"/>
        </g>
        <g transform="matrix(0.383155,-0.000267117,-0.000267117,0.487699,507.933,495.465)">
            <path d="M331.974,318.919L332.149,250.571L846.547,251.886L846.373,320.234L331.974,318.919Z" style="fill:rgb(83,83,83);"/>
        </g>
    </g>
</svg>
