<?xml version="1.0" encoding="UTF-8" standalone="no"?><!DOCTYPE svg PUBLIC "-//W3C//DTD SVG 1.1//EN" "http://www.w3.org/Graphics/SVG/1.1/DTD/svg11.dtd"><svg width="100%" height="100%" viewBox="0 0 1182 1182" version="1.1" style="fill-rule:evenodd;clip-rule:evenodd;stroke-linejoin:round;stroke-miterlimit:2;"><path d="M0,538.773c-0,-14.78 5.879,-28.953 16.342,-39.394c10.462,-10.44 24.647,-16.29 39.428,-16.259c186.691,0.39 778.04,1.628 778.04,1.628c-0,-0 -224.06,-219.688 -317.464,-311.27c-10.608,-10.4 -16.617,-24.609 -16.69,-39.465c-0.073,-14.855 5.796,-29.122 16.3,-39.627c18.815,-18.815 41.23,-41.23 60.048,-60.047c10.507,-10.507 24.779,-16.376 39.639,-16.3c14.859,0.076 29.07,6.092 39.469,16.706c107.272,109.5 403.883,412.273 510.07,520.665c21.309,21.752 21.181,56.589 -0.286,78.183c-106.513,107.146 -403.057,405.449 -510.027,513.054c-21.619,21.747 -56.755,21.909 -78.574,0.363c-18.71,-18.476 -41.029,-40.516 -59.838,-59.089c-10.613,-10.481 -16.575,-24.783 -16.548,-39.699c0.026,-14.916 6.039,-29.197 16.69,-39.64c93.556,-91.73 317.211,-311.021 317.211,-311.021l-778.157,-0c-30.736,-0 -55.653,-24.917 -55.653,-55.653l-0,-103.135Z"/></svg>